<svg width="23px" height="17px" viewBox="0 0 24 17" fill="none" xmlns="http://www.w3.org/2000/svg">
<path d="M22.337 4.25003H4.7979L4.14948 1.10003C4.11251 0.928074 4.01313 0.773857 3.86865 0.664226C3.72416 0.554595 3.54372 0.496492 3.35872 0.500031H0.195679V2.00003H2.7103L5.731 16.4C5.76797 16.572 5.86735 16.7262 6.01183 16.8358C6.15632 16.9455 6.33677 17.0036 6.52176 17H20.7554V15.5H7.17018L6.52176 12.5H20.7554C20.9382 12.5043 21.1169 12.4483 21.2611 12.3416C21.4053 12.235 21.506 12.0842 21.5462 11.915L23.1277 5.16503C23.1542 5.05375 23.1536 4.9382 23.1259 4.82718C23.0982 4.71616 23.0442 4.61259 22.968 4.52436C22.8917 4.43613 22.7952 4.36556 22.6859 4.31802C22.5766 4.27048 22.4572 4.24723 22.337 4.25003ZM20.1228 11H6.22127L5.11421 5.75003H21.3485L20.1228 11Z" fill="#19C819"/>
</svg>
