<svg width="101" height="18" viewBox="0 0 101 18" fill="none" xmlns="http://www.w3.org/2000/svg">
<path d="M8.35624 17.5294L0 0.45671H4.68302L10.3623 12.9619L16.3736 0.45671H20.6026L12.2395 17.5294H8.35624Z" fill="#FAFAFA"/>
<path d="M18.5626 17.5294L26.9121 0.45671H30.7886L39.1516 17.5294H34.8414L28.8571 4.95498L22.8661 17.5294H18.5559H18.5626Z" fill="#FAFAFA"/>
<path d="M42.2624 0.45671H52.4078C53.6141 0.45671 54.651 0.705845 55.5388 1.20411C56.4131 1.69546 57.0908 2.38059 57.5787 3.25256C58.0599 4.12453 58.2971 5.11415 58.2971 6.22834C58.2971 7.40481 58.0193 8.44287 57.4635 9.34944C56.8942 10.256 56.1962 10.9065 55.3558 11.301L59.1104 17.5294H54.4884L51.2489 11.9792H46.3015V17.5294H42.2691V8.32522H52.4145C52.9567 8.32522 53.404 8.14529 53.7496 7.77851C54.0885 7.41173 54.2647 6.8927 54.2647 6.22142C54.2647 5.55014 54.0817 5.02418 53.709 4.6574C53.3295 4.29062 52.8957 4.11069 52.4145 4.11069H42.2691V0.45671H42.2624Z" fill="#FAFAFA"/>
<path d="M66.4636 16.8235C64.932 16.0484 63.6985 14.9757 62.7768 13.6193C61.8619 12.256 61.4011 10.7197 61.4011 8.9965C61.4011 7.27332 61.8619 5.73007 62.7768 4.37366C63.6917 3.01034 64.9252 1.9446 66.4636 1.16951C68.0088 0.380585 69.7031 -0.00695801 71.5668 -0.00695801C73.4305 -0.00695801 75.1384 0.380585 76.6836 1.16951C78.2152 1.9446 79.4486 3.01034 80.3703 4.37366C81.2852 5.73007 81.7461 7.2664 81.7461 8.9965C81.7461 10.7266 81.2852 12.256 80.3703 13.6193C79.4554 14.9757 78.222 16.0484 76.6836 16.8235C75.1384 17.5986 73.4441 17.993 71.5668 17.993C69.6895 17.993 68.0088 17.6055 66.4636 16.8235ZM74.603 13.4532C75.5314 13.0519 76.2769 12.4775 76.853 11.7301C77.4155 10.9757 77.7069 10.0622 77.7069 8.9965C77.7069 7.93076 77.4155 7.01034 76.853 6.26294C76.2769 5.50861 75.5247 4.9273 74.603 4.53283C73.6677 4.13145 72.6579 3.93076 71.5668 3.93076C70.4757 3.93076 69.4794 4.13145 68.5442 4.53975C67.6089 4.94114 66.8567 5.51553 66.2874 6.26986C65.7249 7.02418 65.4335 7.93076 65.4335 8.98958C65.4335 10.0484 65.7249 10.9411 66.2874 11.7024C66.8499 12.4636 67.6022 13.038 68.5442 13.4463C69.4794 13.8477 70.4892 14.0484 71.5668 14.0484C72.6444 14.0484 73.6677 13.8477 74.603 13.4463V13.4532Z" fill="#FAFAFA"/>
<path d="M89.2213 17.5294C88.1641 17.2249 87.222 16.8373 86.4223 16.3391C85.6091 15.8477 84.9178 15.2595 84.3417 14.5744L86.8764 11.7301C87.2491 12.1522 87.6964 12.5398 88.2251 12.9204C88.7537 13.301 89.3907 13.6263 90.1362 13.91C90.8749 14.1937 91.7221 14.3391 92.6573 14.3391C93.5451 14.3391 94.3313 14.2007 95.0361 13.9308C95.7274 13.6678 96.2695 13.3633 96.6491 13.0034C97.0286 12.6436 97.2251 12.3391 97.2251 12.0761C97.2251 11.7716 97.0625 11.5432 96.7439 11.384C96.4254 11.2249 95.9646 11.1142 95.3546 11.038C94.7447 10.9619 94.067 10.8996 93.3079 10.8581C92.576 10.8166 91.8237 10.7612 91.0579 10.6782C90.2853 10.5951 89.5331 10.4567 88.8011 10.2699C88.0827 10.083 87.4254 9.79927 86.8222 9.41865C86.219 9.03802 85.7514 8.53284 85.399 7.89616C85.0398 7.2664 84.8636 6.46363 84.8636 5.50169C84.8636 4.53975 85.1821 3.6401 85.8192 2.80273C86.4562 1.96536 87.3508 1.28716 88.5165 0.775049C89.6889 0.262938 91.0715 -3.75928e-05 92.6709 -3.75928e-05C93.8975 -3.75928e-05 94.9954 0.138371 95.951 0.408267C96.9066 0.692004 97.7537 1.05187 98.4653 1.50169C99.1837 1.9446 99.8343 2.49131 100.431 3.12799L97.8622 5.75775C97.3878 5.31484 96.9269 4.9619 96.4729 4.66432C96.0323 4.37366 95.5173 4.13145 94.9209 3.95152C94.3245 3.76467 93.6061 3.68162 92.7386 3.68162C91.6475 3.68162 90.6716 3.88232 89.8245 4.29062C88.9705 4.69892 88.5504 5.10723 88.5504 5.50861C88.5504 5.86847 88.7333 6.15221 89.0925 6.34598C89.4653 6.54668 89.9871 6.70585 90.6581 6.80965C91.329 6.91346 92.0745 6.9965 92.9013 7.07263C93.8094 7.15567 94.7311 7.25948 95.6596 7.41173C96.5948 7.55706 97.4623 7.79235 98.262 8.11761C99.0617 8.44287 99.7259 8.9273 100.241 9.55706C100.756 10.1868 101 11.0311 101 12.0899C101 13.1488 100.668 14.0968 100.011 15.0034C99.3396 15.91 98.3976 16.6297 97.1506 17.1903C95.9036 17.737 94.4126 18.0069 92.6777 18.0069C91.4307 18.0069 90.2785 17.8477 89.2213 17.5432V17.5294Z" fill="#FAFAFA"/>
</svg>
