<svg width="26" height="25" viewBox="0 0 26 25" fill="none" xmlns="http://www.w3.org/2000/svg">
<path d="M5.05009 18.3876V18.3913H5.04639L5.05009 18.3876Z" fill="#B0B7BE"/>
<path d="M5.54639 18.9707L5.54895 18.9732L5.54639 18.9757V18.9707Z" fill="#B0B7BE"/>
<path d="M19.1345 5.14514H19.1382V5.14889L19.1345 5.14514Z" fill="#B0B7BE"/>
<path d="M25.9937 19.0706C25.9937 14.689 25.9937 10.3075 25.9937 5.92601C25.9937 5.87513 25.9856 5.82229 25.9917 5.77141C26.012 5.55224 25.9429 5.34089 25.9347 5.12368C25.9327 5.05323 25.9449 4.97887 25.9225 4.91429C25.8575 4.72251 25.8697 4.52095 25.8209 4.32721C25.7924 4.21176 25.766 4.09239 25.7314 3.97693C25.6704 3.77341 25.5952 3.5738 25.5138 3.37616C25.4345 3.18242 25.345 2.9926 25.2433 2.81061C25.0827 2.52294 24.8895 2.25289 24.6679 2.00241C24.1859 1.45252 23.6246 0.996556 22.9536 0.671709C22.8539 0.622786 22.7624 0.550381 22.6445 0.538639C22.492 0.448621 22.3211 0.399699 22.1544 0.346862C22.0059 0.299896 21.8514 0.260758 21.7009 0.219663C21.5484 0.178568 21.3918 0.16487 21.2393 0.127688C21.1214 0.0983347 20.9953 0.100292 20.8712 0.0768087C20.6862 0.0415843 20.493 0.047455 20.3039 0.0200583C20.0904 -0.00929538 19.8687 0.00635995 19.6491 0.00635995C16.5866 0.00635995 13.522 0.00635995 10.4595 0.00635995C9.90639 0.00635995 9.35326 0.00635995 8.80014 0.00635995C8.24702 0.00635995 7.68373 0.000489228 7.12451 0.00635995C6.57545 0.0141876 6.02436 -0.0347351 5.47734 0.0552827C5.33296 0.0787656 5.18654 0.0670241 5.03809 0.102248C4.87338 0.141387 4.69646 0.141387 4.52564 0.168783C4.4016 0.188352 4.27959 0.215749 4.16367 0.249017C3.94609 0.313595 3.72646 0.382087 3.51294 0.466234C3.1469 0.609088 2.8012 0.783253 2.47583 0.994599C2.09556 1.23921 1.76206 1.53666 1.45703 1.86151C1.1459 2.19027 0.889676 2.55817 0.682255 2.95542C0.582612 3.14524 0.497199 3.34289 0.423992 3.54445C0.379254 3.66578 0.342653 3.78906 0.299949 3.91039C0.259278 4.02585 0.226739 4.14131 0.202336 4.25677C0.1698 4.41528 0.147432 4.5777 0.114896 4.73621C0.0660908 4.97299 0.0762582 5.21369 0.0193191 5.44852C-0.0152511 5.59529 0.00711835 5.75576 0.00711835 5.91035C0.00711835 7.76355 0.00711835 9.6187 0.00711835 11.4719C0.00711835 11.5189 0.0111852 11.5639 0.0132187 11.6108C0.0111852 11.6578 0.00711835 11.7048 0.00711835 11.7498C0.00711835 14.0296 0.00711835 16.3094 0.00711835 18.5911C0.00711835 18.6381 0.0111852 18.6831 0.0132187 18.7301C0.00508457 18.8886 0.00101749 19.0471 0.0132187 19.2056C0.0416883 19.2056 0.0803228 19.2095 0.0803228 19.2408C0.0803228 19.37 0.118963 19.5011 0.0579568 19.6283C0.0579568 19.7026 0.0437216 19.779 0.0701576 19.8514C0.114895 19.8514 0.147431 19.867 0.145398 19.916C0.14133 20.0979 0.149464 20.278 0.202336 20.4561C0.214538 20.4952 0.206402 20.5402 0.1881 20.5793C0.175899 20.6087 0.175901 20.6381 0.196236 20.6654C0.23894 20.6694 0.263346 20.6928 0.263346 20.7359C0.263346 20.7848 0.269445 20.8337 0.25521 20.8827C0.247076 20.9355 0.249107 20.9883 0.271476 21.0333C0.338583 21.1703 0.369086 21.321 0.423992 21.4619C0.531769 21.7437 0.659883 22.0138 0.812398 22.274C0.99745 22.593 1.21504 22.8924 1.47126 23.1546C1.8129 23.5049 2.18097 23.8317 2.61208 24.0861C3.01066 24.321 3.42143 24.5225 3.87084 24.6536C3.95219 24.6791 4.04166 24.6869 4.1169 24.7202C4.21248 24.7632 4.31619 24.7867 4.41583 24.8043C4.7229 24.8611 5.03403 24.908 5.34516 24.9374C5.41837 24.9452 5.49361 24.9315 5.56275 24.9491C5.77627 25.0039 5.99589 24.9961 6.21145 24.9961C10.6547 25 15.098 24.9961 19.5413 25C19.9155 25 20.2856 24.9785 20.6557 24.9393C20.857 24.9178 21.0583 24.8924 21.2576 24.865C21.3857 24.8474 21.5179 24.8356 21.6419 24.7945C21.8067 24.7417 21.9775 24.7045 22.1442 24.6497C22.3354 24.5851 22.5286 24.5245 22.7116 24.4423C22.9536 24.3347 23.1854 24.2094 23.4091 24.0685C23.6633 23.91 23.9053 23.7398 24.1229 23.5401C24.316 23.364 24.5092 23.1859 24.678 22.9844C24.8997 22.7222 25.099 22.4462 25.2616 22.1488C25.4203 21.8631 25.5484 21.5617 25.6521 21.2525C25.768 20.9022 25.8656 20.55 25.888 20.1821C25.888 20.1625 25.888 20.143 25.892 20.1273C25.9734 19.9218 25.9286 19.6987 25.9815 19.4874C26.0141 19.3543 25.9937 19.2076 25.9937 19.0686V19.0706ZM10.9333 1.97697C10.9354 1.96327 10.9435 1.94957 10.9618 1.95544C10.976 1.95935 10.9801 1.97501 10.9781 1.98871C10.974 2.00241 10.9679 2.01611 10.9496 2.01023C10.9354 2.00632 10.9293 1.99067 10.9333 1.97697ZM10.0874 3.28614C10.2094 3.247 10.3416 3.24309 10.4575 3.18242C10.4697 3.17655 10.4859 3.1746 10.5002 3.17655C10.5449 3.18242 10.6181 3.15111 10.6222 3.21373C10.6283 3.28418 10.5531 3.25483 10.5103 3.2607C10.4005 3.27244 10.3009 3.31549 10.1992 3.34876C10.1667 3.35854 10.1382 3.37224 10.1016 3.37224C10.0752 3.37029 10.0406 3.3742 10.0345 3.33702C10.0264 3.29788 10.0609 3.29788 10.0894 3.2881L10.0874 3.28614ZM9.90029 3.35267C9.92672 3.34876 9.94299 3.36637 9.95113 3.3879C9.95113 3.40942 9.93892 3.42117 9.91859 3.42312C9.89622 3.42312 9.86978 3.42899 9.86165 3.39964C9.85555 3.37224 9.87588 3.35854 9.90029 3.35267ZM22.7299 13.6519C22.7035 13.8945 22.6607 14.1333 22.6201 14.372C22.5855 14.5697 22.5326 14.7693 22.4798 14.965C22.3923 15.282 22.2784 15.5912 22.1666 15.9023C22.0466 16.235 21.8941 16.554 21.7253 16.8671C21.5423 17.2056 21.3512 17.5403 21.1254 17.8553C20.9038 18.1626 20.6801 18.4678 20.4178 18.7457C20.3018 18.867 20.1839 18.9884 20.07 19.1097C19.6938 19.5148 19.2627 19.8612 18.8174 20.1899C18.429 20.4756 18.0141 20.7281 17.5871 20.9531C17.036 21.2427 16.4503 21.4678 15.8525 21.6556C15.6755 21.7124 15.4844 21.7359 15.3075 21.7946C15.1936 21.8318 15.0756 21.8376 14.9638 21.8807C14.8642 21.9198 14.7482 21.9179 14.6405 21.9394C14.4473 21.9766 14.25 22.002 14.0528 22.0196C13.7762 22.0451 13.5017 22.0646 13.2251 22.0705C12.8469 22.0783 12.4666 22.0725 12.0884 22.0549C11.8749 22.0451 11.6634 22.0157 11.4519 21.9942C11.2546 21.9727 11.0553 21.9316 10.8601 21.8866C10.2928 21.7594 9.73354 21.6067 9.19465 21.3915C8.59272 21.1508 8.01519 20.867 7.4702 20.5226C7.16517 20.3289 6.86828 20.1253 6.58968 19.9023C6.28465 19.6596 5.98776 19.4032 5.71729 19.1234C5.69899 19.1058 5.68679 19.0882 5.66036 19.0921C5.58715 19.0843 5.54241 19.049 5.54038 18.9766C5.52208 18.9786 5.49971 18.9845 5.48954 18.9688C5.37159 18.8103 5.20688 18.689 5.09097 18.5285C5.06046 18.4874 5.02386 18.4483 5.04013 18.3915C4.99539 18.3935 4.97709 18.3739 4.98523 18.3309C4.99133 18.2839 4.96489 18.2545 4.93642 18.2213C4.55411 17.7144 4.21451 17.1861 3.94202 16.6166C3.79357 16.3074 3.66749 15.9884 3.53328 15.6753C3.51294 15.6284 3.54548 15.5579 3.4682 15.5364C3.42956 15.5364 3.40516 15.5188 3.40516 15.4816C3.40516 15.4405 3.40517 15.4014 3.40923 15.3603C3.41533 15.3446 3.41329 15.329 3.40313 15.3153C3.38889 15.3113 3.36856 15.3094 3.36449 15.3016C3.32789 15.2096 3.29332 15.1157 3.26282 15.0217C3.25468 14.9963 3.26281 14.9669 3.29128 14.9513C3.28925 14.9337 3.28518 14.9141 3.28315 14.8965C3.23434 14.8926 3.22214 14.8554 3.20994 14.8202C3.20384 14.7986 3.20587 14.7732 3.20181 14.7517C3.15504 14.5384 3.08183 14.329 3.07776 14.1078C2.99236 13.9943 3.03709 13.8652 3.02896 13.7439C3.02896 13.7282 3.04319 13.7106 3.04929 13.6949C3.05946 13.6636 3.05336 13.6362 3.03709 13.6088C2.97812 13.6088 2.96592 13.5736 2.96795 13.5247C2.97202 13.2742 2.95779 13.0257 2.97609 12.7752C2.99642 12.6284 2.98829 12.4817 2.98219 12.3349C3.02489 12.2997 3.01676 12.2507 3.01879 12.2057C3.02896 11.9963 3.03303 11.7889 3.05133 11.5815C3.06556 11.4249 3.10827 11.2723 3.1103 11.1138C3.1103 11.0805 3.12454 11.0492 3.16114 11.0375C3.15504 11.014 3.16114 10.9924 3.16927 10.9709C3.16927 10.8868 3.1347 10.7968 3.22418 10.7322C3.22011 10.6245 3.23638 10.5208 3.26892 10.4171C3.30145 10.3173 3.31162 10.2097 3.34619 10.1079C3.39906 9.95528 3.42347 9.79482 3.48447 9.64805C3.54141 9.51107 3.58208 9.37017 3.63699 9.23318C3.7224 9.01793 3.81594 8.80267 3.91355 8.59132C4.1474 8.09035 4.4382 7.61873 4.76154 7.16669C5.05233 6.76161 5.3716 6.37805 5.72747 6.02385C6.07113 5.68335 6.43107 5.36046 6.81948 5.06888C6.85201 5.04344 6.88048 5.02779 6.92115 5.02583C6.91709 4.96908 6.96385 4.9456 7.00046 4.92016C7.22821 4.77143 7.45801 4.62271 7.68577 4.47398C7.71423 4.45441 7.7427 4.44072 7.77931 4.44659H7.78337C7.79557 4.38201 7.84641 4.38592 7.89318 4.38592C7.91962 4.31743 7.99283 4.30765 8.0457 4.27829C8.39344 4.08456 8.7554 3.91626 9.12347 3.76362C9.20888 3.7284 9.3004 3.66382 9.40817 3.68731C9.62576 3.59533 9.85148 3.52488 10.0792 3.45835C10.1992 3.42312 10.3212 3.39573 10.4412 3.35854C10.5368 3.32723 10.6385 3.31549 10.7361 3.29397C11.0411 3.22743 11.3522 3.18242 11.6634 3.14524C12.0335 3.09828 12.4076 3.08262 12.7798 3.07675C13.1824 3.07088 13.583 3.08653 13.9836 3.12959C14.2399 3.15698 14.492 3.19808 14.7462 3.22743C14.8601 3.24113 14.9719 3.27635 15.0858 3.29984C15.3075 3.34485 15.5251 3.40355 15.7426 3.46617C15.8342 3.49161 15.9318 3.50336 16.0131 3.55619C16.0436 3.57576 16.0761 3.57576 16.1107 3.56989C16.1229 3.56989 16.1351 3.57185 16.1473 3.5738C16.2673 3.56989 16.3791 3.58555 16.4605 3.68339C16.8387 3.82625 17.2007 3.99845 17.5606 4.17653C17.5769 4.18436 17.585 4.20393 17.5972 4.21763C17.6847 4.2235 17.7477 4.26655 17.7986 4.33113C17.9145 4.33896 17.9938 4.41723 18.0873 4.46811C18.2154 4.53856 18.3313 4.63054 18.4656 4.68924C18.5022 4.69511 18.5123 4.74991 18.5571 4.74012C18.612 4.72447 18.6425 4.73425 18.6262 4.79687C18.6831 4.7773 18.6974 4.8047 18.6933 4.85362C18.7035 4.87124 18.7157 4.88298 18.738 4.87124C18.7828 4.86341 18.8133 4.87711 18.8133 4.92603C18.8133 4.94168 18.8174 4.95734 18.8174 4.97299C18.8397 4.97495 18.8621 4.97887 18.8845 4.98082C18.9312 4.97299 18.9577 4.99061 18.9597 5.03757C18.9739 5.08454 19.0085 5.09628 19.0553 5.09628C19.1041 5.08845 19.1346 5.09628 19.1265 5.15303C19.1712 5.14325 19.1915 5.16086 19.1875 5.20587C19.2302 5.2 19.2505 5.21956 19.2485 5.26066C19.3176 5.35655 19.4254 5.41134 19.5067 5.49353C19.6369 5.62073 19.7731 5.7401 19.9073 5.86339C19.9155 5.87122 19.9155 5.88883 19.9195 5.90253C20.0578 6.00429 20.1839 6.11583 20.2713 6.26455C20.3079 6.26847 20.3262 6.28804 20.3283 6.32326C20.4401 6.40349 20.5215 6.51308 20.6069 6.6168C20.9953 7.08841 21.345 7.58547 21.6358 8.11775C21.8229 8.45825 21.9978 8.80462 22.1361 9.16665C22.2337 9.42105 22.3333 9.6774 22.4045 9.94159C22.4513 10.1197 22.5082 10.2977 22.5509 10.4778C22.6119 10.7302 22.6526 10.9885 22.6912 11.2468C22.7502 11.6441 22.7767 12.0453 22.7828 12.4464C22.7909 12.8515 22.7624 13.2566 22.7177 13.6617L22.7299 13.6519Z" fill="#B0B7BE"/>
<path d="M0.0701681 19.8494C0.114906 19.8494 0.147442 19.865 0.145408 19.9139C0.141341 20.0959 0.149475 20.276 0.202347 20.4541C0.214548 20.4932 0.206413 20.5382 0.188111 20.5773C0.17591 20.5636 0.153542 20.5499 0.151509 20.5362C0.139307 20.3053 0.0498306 20.0842 0.0681325 19.8513L0.0701681 19.8494Z" fill="#B0B7BE"/>
<path d="M0.0132701 19.2056C0.0417969 19.2056 0.0805091 19.2095 0.0805091 19.2409C0.0805091 19.3703 0.119227 19.5017 0.0580982 19.6292C0.0112327 19.6253 0.0112305 19.5939 0.0112305 19.5605C0.0112305 19.4429 0.0112325 19.3252 0.0132701 19.2056Z" fill="#B0B7BE"/>
<path d="M0.19629 20.6615C0.240451 20.6654 0.262535 20.6888 0.262535 20.7318C0.262535 20.7806 0.268555 20.8295 0.254504 20.8783C0.186255 20.8178 0.192275 20.7396 0.19629 20.6615Z" fill="#B0B7BE"/>
<path d="M17.8067 4.32325C17.9226 4.32912 18.0019 4.40935 18.0955 4.46023C18.2236 4.53068 18.3375 4.62265 18.4737 4.6794C18.5103 4.68527 18.5205 4.74007 18.5652 4.72833C18.5754 4.76159 18.5896 4.7929 18.6344 4.78508C18.6445 4.81639 18.6588 4.84378 18.7015 4.84183C18.7116 4.85944 18.7238 4.87118 18.7462 4.85944C18.7523 4.90053 18.7808 4.91423 18.8215 4.91423L18.8255 4.96316L18.8174 4.97294C18.7137 4.98272 18.671 4.89271 18.5998 4.84965C18.3497 4.69702 18.1036 4.53655 17.8555 4.38195C17.8291 4.3663 17.8067 4.35456 17.8047 4.32129L17.8067 4.32325Z" fill="#07AEE5"/>
<path d="M19.2606 5.25086C19.3298 5.34675 19.4375 5.40154 19.5189 5.48373C19.649 5.61093 19.7853 5.7303 19.9195 5.85359C19.9276 5.86141 19.9276 5.87903 19.9317 5.89272L19.9236 5.90251C19.8646 5.89664 19.8321 5.85163 19.7955 5.81836C19.6572 5.68725 19.525 5.55222 19.3786 5.43285C19.3135 5.38001 19.2281 5.34479 19.1956 5.25869L19.2037 5.2489L19.2606 5.25282V5.25086Z" fill="#07AEE5"/>
<path d="M5.04617 18.3876C5.0665 18.3876 5.08481 18.3915 5.09701 18.4091C5.22106 18.5793 5.36951 18.732 5.51187 18.8866C5.53424 18.9101 5.55457 18.9375 5.54847 18.9746C5.53017 18.9766 5.50577 18.9844 5.49357 18.9668C5.37562 18.8083 5.21089 18.687 5.09497 18.5265C5.06447 18.4835 5.02786 18.4443 5.04617 18.3876Z" fill="#B0B7BE"/>
<path d="M18.9703 5.03188C18.9846 5.07895 19.0192 5.09072 19.0661 5.08876C19.0661 5.13583 19.0987 5.14564 19.1374 5.1476H19.1354C19.1313 5.1927 19.1639 5.19859 19.2006 5.20055H19.1986C19.2006 5.21624 19.2027 5.23193 19.2067 5.24958L19.1986 5.25939C19.0518 5.19074 18.9173 5.10641 18.8215 4.97697L18.8297 4.96716L18.8969 4.97501C18.8969 5.02208 18.9357 5.02796 18.9724 5.03188H18.9703Z" fill="#07AEE5"/>
<path d="M19.9318 5.8927C20.0704 5.99468 20.1968 6.10648 20.2844 6.25553L20.2742 6.26534C20.1438 6.15551 20.0052 6.05548 19.9216 5.90251L19.9298 5.8927H19.9318Z" fill="#07AEE5"/>
<path d="M5.54639 18.9707C5.62204 18.9766 5.65067 19.0278 5.66702 19.0907C5.59341 19.0829 5.54843 19.0474 5.54639 18.9707Z" fill="#B0B7BE"/>
<path d="M19.2036 5.24923C19.2016 5.23151 19.1996 5.21577 19.1956 5.19805C19.2401 5.19214 19.2603 5.21183 19.2603 5.25316L19.2036 5.24923Z" fill="#B0B7BE"/>
<path d="M20.2835 6.25478C20.3199 6.25871 20.3381 6.2784 20.3401 6.31186L20.332 6.31973C20.3017 6.31186 20.2835 6.29217 20.2754 6.26265L20.2855 6.25281L20.2835 6.25478Z" fill="#07AEE5"/>
<path d="M19.1974 5.20031C19.161 5.20031 19.1286 5.19243 19.1327 5.14519C19.1792 5.13338 19.2015 5.15307 19.1974 5.20031Z" fill="#B0B7BE"/>
<path d="M19.1364 5.14763C19.0979 5.14763 19.0654 5.1358 19.0654 5.08845C19.1141 5.07859 19.1445 5.09043 19.1364 5.14763Z" fill="#B0B7BE"/>
<path d="M18.9698 5.03216C18.9333 5.02624 18.8968 5.0223 18.8948 4.97495C18.9414 4.96706 18.9678 4.98481 18.9698 5.03216Z" fill="#B0B7BE"/>
<path d="M18.8233 4.91864C18.7828 4.91864 18.7544 4.90483 18.7483 4.8634C18.7929 4.85551 18.8233 4.86932 18.8233 4.91864Z" fill="#B0B7BE"/>
<path d="M18.703 4.84415C18.6605 4.84415 18.6463 4.81856 18.6362 4.78707C18.6929 4.76739 18.707 4.79691 18.703 4.84415Z" fill="#B0B7BE"/>
<path d="M18.6341 4.78759C18.5875 4.79351 18.5753 4.76392 18.5652 4.73039C18.6199 4.7146 18.6503 4.72447 18.6341 4.78759Z" fill="#B0B7BE"/>
<path d="M4.99138 18.3289C5.03623 18.3269 5.05457 18.3487 5.04846 18.3903C5.00157 18.3943 4.98322 18.3745 4.99138 18.3289Z" fill="#B0B7BE"/>
<path d="M9.41219 3.6775C9.40812 3.69511 9.40812 3.72055 9.38575 3.72447C9.29424 3.74012 9.21697 3.79296 9.13156 3.82427C8.81027 3.93973 8.50931 4.10019 8.20428 4.24892C8.13514 4.28219 8.06803 4.3135 8.00703 4.35851C7.97246 4.38395 7.93585 4.38199 7.89722 4.37807C7.92365 4.30958 7.99686 4.2998 8.04973 4.27044C8.39746 4.07671 8.75943 3.90842 9.1275 3.75578C9.2129 3.72055 9.30441 3.65598 9.41219 3.67946V3.6775Z" fill="#07AEE5"/>
<path d="M7.78152 4.43677C7.76119 4.50526 7.69611 4.53853 7.6412 4.56788C7.51309 4.63441 7.3992 4.72052 7.28125 4.79879C7.18364 4.86337 7.07383 4.9123 6.99045 4.9984C6.97215 5.01797 6.94978 5.01992 6.92334 5.01797C6.91928 4.96122 6.96605 4.93773 7.00469 4.9123C7.23245 4.76357 7.46224 4.61485 7.69001 4.46612C7.71848 4.44655 7.74695 4.43285 7.78355 4.43872L7.78152 4.43677Z" fill="#07AEE5"/>
<path d="M10.1015 3.37028C10.0751 3.36637 10.0405 3.37224 10.0344 3.33506C10.0283 3.29592 10.0609 3.29592 10.0893 3.28614C10.2114 3.247 10.3435 3.24113 10.4594 3.18046C10.4716 3.17459 10.4879 3.17264 10.5022 3.17459C10.5469 3.18046 10.6201 3.14915 10.6242 3.20982C10.6303 3.28027 10.555 3.25091 10.5123 3.25483C10.4025 3.26657 10.3029 3.30962 10.2012 3.34289C10.1687 3.35267 10.1402 3.36637 10.1036 3.36637L10.1015 3.37028Z" fill="#B0B7BE"/>
<path d="M3.22744 10.7263C3.24151 10.785 3.23548 10.8456 3.23548 10.9043C3.23548 10.9434 3.21337 10.9629 3.17519 10.9649C3.17519 10.8808 3.14103 10.7908 3.22945 10.7263H3.22744Z" fill="#07AEE5"/>
<path d="M9.95412 3.38834C9.95412 3.4101 9.94178 3.42198 9.92122 3.42395C9.89861 3.42395 9.86982 3.42989 9.86365 3.40021C9.85749 3.37251 9.87805 3.35866 9.90272 3.35273C9.92945 3.34877 9.9459 3.36658 9.95412 3.38834Z" fill="#B0B7BE"/>
<path d="M7.89547 4.3781C7.88935 4.45067 7.83024 4.43498 7.7854 4.43694C7.79763 4.37418 7.84859 4.3781 7.89547 4.3781Z" fill="#07AEE5"/>
<path d="M10.9797 1.98877C10.9757 2.00252 10.9676 2.01627 10.9515 2.01037C10.9373 2.00645 10.9313 1.99073 10.9353 1.97699C10.9373 1.96324 10.9454 1.94949 10.9636 1.95538C10.9777 1.95931 10.9817 1.97502 10.9797 1.98877Z" fill="#B0B7BE"/>
<path d="M3.05342 13.6871C3.1124 13.7478 3.10222 13.8241 3.10629 13.8965C3.11646 14.0726 3.17747 14.2409 3.20187 14.4131C3.22424 14.5736 3.29745 14.7243 3.28932 14.8887C3.24254 14.8848 3.22831 14.8476 3.21611 14.8124C3.20798 14.7908 3.21204 14.7654 3.20797 14.7439C3.1612 14.5306 3.08799 14.3212 3.08392 14.1C2.99851 13.9885 3.04325 13.8574 3.03511 13.7361C3.03511 13.7204 3.04935 13.7028 3.05545 13.6871H3.05342Z" fill="#B0B7BE"/>
<path d="M2.98031 12.7693C3.01285 12.7889 3.01895 12.8202 3.02098 12.8534C3.03115 13.0804 3.04335 13.3074 3.05148 13.5344C3.05148 13.5579 3.04538 13.5794 3.04131 13.6029C2.98234 13.6029 2.97218 13.5677 2.97218 13.5188C2.97624 13.2683 2.96201 13.0198 2.98031 12.7693Z" fill="#B0B7BE"/>
<path d="M3.29739 14.9454C3.29739 14.9454 3.32185 14.9513 3.32389 14.9552C3.34631 15.0749 3.41968 15.1847 3.40949 15.3122C3.39726 15.3083 3.37484 15.3063 3.37076 15.2985C3.33408 15.2063 3.29944 15.1121 3.26887 15.018C3.26071 14.9905 3.26886 14.9631 3.29739 14.9474V14.9454Z" fill="#B0B7BE"/>
<path d="M3.41535 15.3544C3.50006 15.3936 3.46173 15.4701 3.47585 15.5309C3.43753 15.5309 3.41333 15.5133 3.41333 15.476C3.41333 15.4348 3.41333 15.3956 3.41535 15.3544Z" fill="#B0B7BE"/>
<path d="M15.6105 10.2352C15.5556 10.29 15.4763 10.3232 15.4417 10.3995C15.4051 10.4015 15.3807 10.4172 15.3787 10.4563C15.3441 10.4582 15.3157 10.4661 15.3157 10.5091L15.3197 10.517V10.5091C15.2852 10.517 15.2567 10.5287 15.2608 10.5678H15.2628C15.2282 10.5737 15.1957 10.5796 15.2018 10.6246H15.2038C15.1754 10.6265 15.1489 10.6344 15.1286 10.6559C15.0391 10.742 14.9496 10.8301 14.8581 10.9142C14.8358 10.9338 14.8195 10.9553 14.8195 10.9847L14.8297 10.9925L14.8215 10.9847C14.7829 10.9847 14.7625 11.0003 14.7605 11.0375H14.7564C14.6487 11.104 14.5307 11.106 14.4087 11.104C14.1322 11.1001 13.8556 11.1021 13.579 11.104C13.4062 11.104 13.3553 11.1471 13.337 11.3154C13.3045 11.6167 13.2862 11.9201 13.2435 12.2214C13.2028 12.5071 13.1967 12.7968 13.1439 13.0825C13.1154 13.2371 13.1154 13.3975 13.1032 13.556C13.0849 13.7987 13.0706 14.0413 13.034 14.2801C12.9995 14.5051 13.0198 14.738 12.9466 14.9591C12.9364 14.9885 12.9405 15.0237 12.9385 15.057C12.9283 15.2566 12.8876 15.4503 12.8388 15.646C12.8104 15.7576 12.7941 15.873 12.7758 15.9865C12.731 16.2331 12.6456 16.464 12.5541 16.693C12.4016 17.0746 12.1718 17.4092 11.8831 17.7125C11.6573 17.9493 11.4174 18.1646 11.1408 18.3387C10.8216 18.5403 10.484 18.7007 10.1037 18.7732C9.88206 18.8142 9.66243 18.8749 9.43468 18.871C9.11135 18.8651 8.80632 18.781 8.50738 18.6675C8.34267 18.6049 8.32843 18.4718 8.46265 18.3544C8.72294 18.1235 8.98527 17.8945 9.24556 17.6616C9.34724 17.5697 9.45298 17.5716 9.57703 17.6107C9.69701 17.6499 9.81699 17.6969 9.94713 17.6969C10.0874 17.6969 10.2278 17.6969 10.3701 17.6988C10.6324 17.6988 10.8338 17.5794 11.0046 17.3994C11.1795 17.2155 11.2872 16.9963 11.3726 16.7634C11.4316 16.601 11.452 16.4307 11.4967 16.2683C11.5557 16.053 11.517 15.83 11.5943 15.6206C11.5943 15.6167 11.5943 15.6108 11.5943 15.6069C11.5821 15.327 11.6736 15.0531 11.6655 14.7732C11.6634 14.7087 11.6695 14.6441 11.698 14.5815C11.7122 14.5521 11.7163 14.5188 11.7183 14.4856C11.7204 14.2938 11.757 14.1059 11.7712 13.9161C11.7977 13.5619 11.8424 13.2097 11.8729 12.8555C11.8892 12.6519 11.8953 12.4445 11.9339 12.2449C11.9685 12.0629 11.9624 11.8829 11.9868 11.7048C12.0051 11.5717 12.0376 11.4406 12.0356 11.3036C12.0335 11.151 11.9888 11.1021 11.8302 11.1001C11.6411 11.0982 11.452 11.1001 11.2628 11.1001C11.2242 11.1001 11.1835 11.1001 11.1469 11.0923C11.0269 11.0629 10.9924 10.9533 11.0615 10.8535C11.1164 10.7753 11.214 10.7283 11.2486 10.6344C11.3116 10.6187 11.3482 10.5815 11.3625 10.5209H11.3645C11.3909 10.5209 11.4072 10.5072 11.4255 10.4896C11.5313 10.3819 11.639 10.2763 11.7468 10.1725C11.8058 10.1138 11.879 10.0669 11.9197 9.9925C11.9624 9.9925 12.0071 9.9925 12.0498 9.99055C12.1637 9.98663 12.1881 9.97098 12.2023 9.86922C12.2247 9.71462 12.2267 9.55807 12.2633 9.40347C12.3365 8.92403 12.4891 8.47198 12.6924 8.02777C12.9324 7.50136 13.2842 7.0591 13.7356 6.69316C13.9674 6.50529 14.2318 6.35657 14.5246 6.25872C14.6568 6.21567 14.787 6.1687 14.9232 6.13544C15.0838 6.0963 15.2445 6.06694 15.4072 6.05325C15.7915 6.02585 16.1718 6.05716 16.5521 6.10804C16.5765 6.11195 16.5988 6.11782 16.6232 6.12369C16.8124 6.17262 16.851 6.2959 16.7127 6.42897C16.5256 6.60901 16.3345 6.78709 16.1433 6.96321C16.0335 7.06497 15.9217 7.16477 15.8139 7.26849C15.7509 7.32719 15.6898 7.35263 15.5963 7.31545C15.3299 7.21174 15.0533 7.16281 14.7646 7.18434C14.4799 7.20586 14.2359 7.30567 14.0528 7.52288C13.9613 7.63247 13.8963 7.75967 13.8536 7.89078C13.7681 8.15692 13.6929 8.42698 13.6522 8.70486C13.6095 8.98078 13.5506 9.25279 13.5445 9.53263C13.5445 9.61286 13.4957 9.68135 13.4977 9.76354C13.5038 9.89661 13.516 9.9201 13.6665 9.97685C13.7173 9.99642 13.7722 9.98859 13.8251 9.98859C14.3579 9.98859 14.8907 9.98859 15.4234 9.98859C15.6024 9.98859 15.6329 10.0258 15.6146 10.1999C15.6146 10.2136 15.6126 10.2273 15.6105 10.241V10.2352Z" fill="#B0B7BE"/>
<path d="M17.6033 4.20977C17.5118 4.22934 17.4487 4.16672 17.3776 4.13345C17.1152 4.00821 16.8488 3.89667 16.5784 3.78512C16.5194 3.76164 16.4299 3.7636 16.4055 3.68141L16.4625 3.67554C16.8407 3.81643 17.2027 3.9906 17.5646 4.16868C17.5809 4.17651 17.589 4.19608 17.6013 4.20977H17.6033Z" fill="#07AEE5"/>
<path d="M16.4654 3.67385L16.4083 3.67974C16.337 3.66012 16.2779 3.60913 16.1984 3.60913C16.1699 3.60913 16.1678 3.57775 16.1536 3.56206C16.2738 3.55814 16.3859 3.57383 16.4674 3.67189L16.4654 3.67385Z" fill="#B0B7BE"/>
<path d="M17.8046 4.32334C17.707 4.33508 17.648 4.2842 17.6033 4.20984C17.6907 4.21571 17.7537 4.25876 17.8046 4.32334Z" fill="#07AEE5"/>
<path d="M15.3787 10.4566C15.3787 10.4173 15.4029 10.4015 15.4414 10.3995C15.4454 10.4428 15.4272 10.4645 15.3787 10.4566Z" fill="#07AEE5"/>
</svg>
