<svg width="77" height="26" viewBox="0 0 77 26" fill="none" xmlns="http://www.w3.org/2000/svg">
<path d="M77 11.8404C76.9318 12.0164 76.9478 12.2061 76.9077 12.388C76.7312 13.1984 76.2437 13.6926 75.4073 13.8369C74.9519 13.916 74.4966 13.9357 74.0432 13.831C73.2108 13.6392 72.6972 13.0324 72.601 12.1943C72.5287 11.5479 72.6491 10.9252 72.7674 10.2986C72.7915 10.1681 72.8176 10.0377 72.8236 9.90722C72.8397 9.60874 72.6992 9.46642 72.3923 9.45061C72.0333 9.43282 71.7223 9.56526 71.4315 9.74909C70.9842 10.0318 70.6371 10.4212 70.2901 10.8106C69.3012 11.9195 68.8258 13.23 68.6633 14.675C68.5951 15.2858 68.563 15.8966 68.563 16.5114C68.563 19.2313 68.563 21.9492 68.563 24.6692C68.563 24.9518 68.563 24.9518 68.8478 24.9518C69.6422 24.9518 70.4365 24.9558 71.2309 24.9479C71.3954 24.9479 71.4395 25.0013 71.4395 25.1554C71.4395 25.6595 71.4455 25.6595 70.926 25.6595C67.877 25.6595 64.8279 25.6595 61.7769 25.6595C61.6097 25.6595 61.5255 25.5785 61.5242 25.4164C61.5242 25.1304 61.6679 24.9874 61.9554 24.9874C62.6836 24.9874 63.4097 24.9874 64.1379 24.9874C64.3786 24.9874 64.3907 24.9756 64.3907 24.7463C64.3907 19.7156 64.3907 14.6869 64.3947 9.65618C64.3947 9.48421 64.3405 9.44468 64.176 9.44665C63.3817 9.45456 62.5873 9.44665 61.793 9.45258C61.6345 9.45258 61.5783 9.40317 61.5763 9.24701C61.5703 8.77656 61.5643 8.77656 62.0437 8.77656C63.48 8.77656 64.9162 8.78446 66.3525 8.7726C66.9623 8.76667 67.5721 8.72121 68.1839 8.69551C68.4326 8.68563 68.4487 8.69947 68.4487 8.93667C68.4487 9.97839 68.4487 11.0181 68.4507 12.0598C68.4507 12.1211 68.4005 12.22 68.5048 12.2417C68.6051 12.2615 68.6091 12.1567 68.6372 12.0974C69.1387 10.9568 69.8568 9.98432 70.934 9.30829C72.2299 8.49587 73.636 8.28831 75.1104 8.71528C76.1795 9.02364 76.8776 9.94478 76.9579 11.0379C76.9619 11.1031 76.9538 11.1723 77 11.2277V11.8404Z" fill="#B0B7BE"/>
<path d="M56.5013 0C56.6758 0.243133 56.8503 0.488243 57.0308 0.739283C56.8764 0.792654 56.7741 0.74719 56.6738 0.652309C56.5554 0.541614 56.4451 0.351851 56.3007 0.355805C56.1743 0.359758 56.0479 0.5258 55.9296 0.628588C55.8313 0.713586 55.731 0.76498 55.5725 0.711609C55.751 0.468476 55.9235 0.235226 56.0981 0H56.5013Z" fill="#B0B7BE"/>
<path d="M41.8942 12.975C41.8942 16.873 41.8942 20.773 41.8942 24.6711C41.8942 24.8648 41.9905 24.9623 42.1831 24.9636C42.9714 24.9636 43.7598 24.9676 44.5481 24.9597C44.7266 24.9597 44.7788 25.017 44.7768 25.189C44.7707 25.6654 44.7768 25.6654 44.2933 25.6654C40.4439 25.6654 36.5925 25.6654 32.7431 25.6614C32.035 25.6614 31.343 25.5646 30.6951 25.2601C30.005 24.9379 29.5697 24.4102 29.4092 23.6729C29.3972 23.6215 29.4092 23.5562 29.337 23.5424C29.2648 23.5286 29.2488 23.5938 29.2227 23.6393C28.4965 24.8945 27.3552 25.5784 25.955 25.8255C24.4004 26.1002 22.8839 25.9085 21.4677 25.191C20.0234 24.4596 19.191 23.2854 18.9864 21.6922C18.866 20.7553 18.9382 19.842 19.3976 18.992C19.8469 18.1599 20.549 17.5866 21.3754 17.1458C22.4386 16.5765 23.586 16.2622 24.7635 16.0349C26.0393 15.7878 27.301 15.4953 28.5487 15.1355C29.2508 14.9319 29.333 14.8173 29.327 14.1057C29.321 13.4257 29.3531 12.7457 29.2969 12.0677C29.2608 11.6289 29.1866 11.1979 29.0281 10.7848C28.7433 10.0455 28.2197 9.54741 27.4454 9.328C26.7113 9.12044 25.963 9.09079 25.2168 9.23905C24.5148 9.37939 24.1797 9.7945 24.1918 10.5002C24.2018 11.0655 24.2439 11.6289 24.27 12.1942C24.2821 12.4531 24.28 12.7121 24.2179 12.9651C24.0835 13.5087 23.7685 13.9139 23.2309 14.1155C22.5429 14.3745 21.8428 14.3844 21.1588 14.1037C20.3384 13.7657 19.9211 12.9691 20.0274 12.0993C20.1859 10.8184 20.9462 9.98821 22.0454 9.40113C22.8438 8.97417 23.7043 8.73301 24.597 8.60848C26.2258 8.38511 27.8486 8.44441 29.4594 8.78243C30.2297 8.94452 30.9558 9.2173 31.6037 9.67194C32.5766 10.3559 33.0901 11.3205 33.3489 12.4393C33.5395 13.2656 33.5816 14.1037 33.5796 14.9477C33.5776 17.4937 33.5776 20.0377 33.5796 22.5837C33.5796 22.9869 33.5936 23.3902 33.702 23.7816C33.8985 24.4952 34.3399 24.8648 35.0821 24.9577C35.6056 25.0229 36.1312 24.9874 36.6567 24.9953C36.9556 25.0012 37.2565 24.9933 37.5554 24.9972C37.6797 24.9972 37.7379 24.9498 37.7279 24.8253C37.7239 24.7838 37.7279 24.7403 37.7279 24.6988C37.7279 17.1419 37.7279 9.58497 37.7279 2.02807C37.7279 1.8304 37.6263 1.73156 37.423 1.73156C36.6587 1.73156 35.8945 1.72761 35.1322 1.73552C34.9557 1.73552 34.8955 1.68215 34.9015 1.5082C34.9176 1.01007 34.8333 1.06147 35.3468 1.06147C36.9115 1.05949 38.4761 1.06344 40.0407 1.05356C40.5603 1.04961 41.0778 1.00414 41.5973 0.984375C41.8742 0.974491 41.8922 0.996235 41.8922 1.26309C41.8922 5.16706 41.8922 9.073 41.8922 12.977L41.8942 12.975ZM29.3711 18.5928C29.3711 17.6538 29.3691 16.7149 29.3731 15.776C29.3731 15.6178 29.337 15.5941 29.1846 15.6455C28.8496 15.7582 28.5086 15.8511 28.1716 15.9519C27.3993 16.1792 26.6029 16.3037 25.8306 16.5311C24.7274 16.8572 23.9571 17.5293 23.6843 18.66C23.3694 19.9626 23.3553 21.2811 23.588 22.5975C23.6903 23.1826 23.8949 23.7361 24.264 24.2164C24.5669 24.6098 24.948 24.8945 25.4575 24.9518C26.3381 25.0546 27.1505 24.847 27.8526 24.3153C28.8616 23.5543 29.321 22.5046 29.3631 21.2811C29.3952 20.3856 29.3691 19.4882 29.3691 18.5928H29.3711Z" fill="#B0B7BE"/>
<path d="M5.29373 1.08325C6.98674 1.08325 8.67976 1.08325 10.3728 1.08325C10.6235 1.08325 10.6255 1.08325 10.6235 1.33232C10.6195 1.77707 10.6797 1.73161 10.2283 1.73161C9.52626 1.73161 8.82217 1.73161 8.12009 1.73161C7.79714 1.73161 7.76104 1.78102 7.87537 2.08346C9.60449 6.69113 11.3316 11.2968 13.0607 15.9045C13.4699 16.9976 13.8811 18.0907 14.2904 19.1819C14.3064 19.2273 14.3184 19.2748 14.3425 19.3163C14.3846 19.3914 14.4368 19.3874 14.4769 19.3143C14.505 19.2609 14.521 19.2016 14.5411 19.1463C16.6413 13.5918 18.7395 8.03726 20.8398 2.48473C20.8899 2.35427 20.914 2.21985 20.938 2.08346C20.9701 1.90951 20.8859 1.81068 20.7214 1.76126C20.6371 1.73754 20.5529 1.73358 20.4686 1.73358C19.7605 1.73358 19.0505 1.73358 18.3424 1.73358C18.0876 1.73358 18.0776 1.72568 18.0796 1.48254C18.0836 1.03976 18.0214 1.08523 18.4768 1.08523C20.3904 1.08523 22.3021 1.08523 24.2157 1.08523C24.4805 1.08523 24.4825 1.08523 24.4805 1.33627C24.4765 1.83835 24.5387 1.75928 24.0412 1.76323C23.4976 1.76719 22.954 1.76323 22.4104 1.76323C21.947 1.76323 21.7926 1.868 21.6301 2.29497C20.8217 4.43968 20.0153 6.58439 19.2069 8.7291C17.1027 14.3192 14.9964 19.9093 12.8942 25.4994C12.8381 25.6496 12.7598 25.7168 12.5893 25.7129C11.8572 25.6911 12.0417 25.8216 11.7849 25.1653C8.76801 17.474 5.7571 9.7807 2.74418 2.08939C2.60978 1.74742 2.58772 1.73161 2.2086 1.73161C1.54865 1.73161 0.888693 1.72568 0.228739 1.73556C0.046199 1.73754 -0.00194642 1.67231 5.95172e-05 1.50429C0.00607733 1.08325 6.29381e-05 1.08325 0.417298 1.08325C2.04211 1.08325 3.66892 1.08325 5.29373 1.08325Z" fill="#B0B7BE"/>
<path d="M44.3232 17.5965C44.3252 15.6949 44.6241 14.163 45.3904 12.7398C46.4696 10.7354 48.1345 9.43278 50.3551 8.84768C52.4352 8.30013 54.5074 8.36734 56.5153 9.16395C58.786 10.0633 60.2765 11.7139 61.0708 13.9792C61.5462 15.3332 61.6706 16.7347 61.5663 18.1579C61.472 19.4428 61.1631 20.6703 60.5412 21.8108C59.442 23.8271 57.7409 25.0961 55.5043 25.6634C53.4442 26.1853 51.3962 26.1161 49.4103 25.3452C47.0132 24.4161 45.4907 22.6746 44.7425 20.2651C44.4416 19.2985 44.3192 18.3042 44.3252 17.5985L44.3232 17.5965ZM48.9409 17.3158C48.9389 17.7922 48.9549 18.2666 48.973 18.741C49.0131 19.7748 49.0974 20.8047 49.308 21.8207C49.4705 22.6015 49.6991 23.3586 50.1425 24.0366C50.5055 24.5901 51.005 24.9577 51.6509 25.1356C52.2948 25.3135 52.9448 25.357 53.6087 25.278C54.6819 25.1475 55.4823 24.6355 55.9697 23.6729C56.1442 23.327 56.2887 22.9712 56.397 22.6015C56.7861 21.2811 56.8944 19.9211 56.9406 18.5572C56.9767 17.5115 56.9727 16.4639 56.9125 15.4182C56.8563 14.4397 56.762 13.4652 56.5414 12.5065C56.3709 11.7593 56.1362 11.0359 55.7009 10.3875C55.3599 9.87951 54.8945 9.54742 54.2988 9.37743C53.7211 9.21336 53.1433 9.17185 52.5436 9.22918C51.3159 9.3458 50.3932 9.86963 49.8717 11.0122C49.5246 11.7752 49.326 12.5777 49.1957 13.398C48.9911 14.6967 48.9429 16.0053 48.9369 17.3178L48.9409 17.3158Z" fill="#B0B7BE"/>
<path d="M60.7841 1.52205C60.7059 1.76716 60.6377 1.97669 60.5715 2.18622C60.3629 2.84643 60.1542 3.50467 59.9516 4.16489C59.9155 4.28151 59.8674 4.32698 59.739 4.325C59.3559 4.31907 59.3539 4.325 59.2395 3.96327C59.0008 3.20619 58.7641 2.44912 58.5254 1.69204C58.5134 1.65251 58.4973 1.61495 58.4753 1.5517C58.4291 1.62681 58.4452 1.69204 58.4452 1.74937C58.4452 2.53214 58.4392 3.31293 58.4472 4.0957C58.4472 4.24989 58.4171 4.32302 58.2486 4.29337C58.1944 4.28349 58.1383 4.28744 58.0841 4.29337C57.9959 4.30128 57.9678 4.2657 57.9678 4.1807C57.9698 3.15875 57.9698 2.1368 57.9678 1.11287C57.9678 1.02788 57.9999 0.994272 58.0841 0.996249C58.2727 1.0002 58.4632 1.00416 58.6518 0.996249C58.7742 0.990319 58.8183 1.04171 58.8524 1.15043C59.0891 1.92727 59.3318 2.70016 59.5745 3.47502C59.5926 3.53037 59.6126 3.58572 59.6327 3.64699C59.7129 3.59362 59.7089 3.51456 59.729 3.44933C59.9597 2.69027 60.1883 1.93122 60.409 1.16822C60.4491 1.03183 60.5113 0.986365 60.6497 0.994272C60.8383 1.00613 61.0288 1.0002 61.2174 0.996249C61.3117 0.994272 61.3437 1.02788 61.3437 1.12078C61.3417 2.1368 61.3417 3.15282 61.3437 4.17082C61.3437 4.26372 61.3157 4.2914 61.2194 4.29535C60.8363 4.30919 60.8362 4.31116 60.8362 3.93757C60.8362 3.21015 60.8362 2.48272 60.8362 1.7553C60.8362 1.69402 60.8563 1.62681 60.7861 1.52403L60.7841 1.52205Z" fill="#B0B7BE"/>
<path d="M52.7662 1.85412C52.7662 2.56178 52.7662 3.27141 52.7662 3.97907C52.7662 4.29929 52.686 4.35859 52.357 4.29139C52.3049 4.2815 52.2828 4.26174 52.2828 4.21034C52.2828 4.1629 52.2828 4.11348 52.2828 4.06604C52.2828 3.09153 52.2848 2.11702 52.2788 1.14449C52.2788 1.01007 52.3169 0.986355 52.4493 0.970541C52.7462 0.932984 52.9006 1.03973 53.027 1.31251C53.3299 1.95493 53.6749 2.57759 54.0039 3.20816C54.036 3.27141 54.0701 3.33269 54.1122 3.4078C54.1784 3.33467 54.1543 3.26746 54.1543 3.20618C54.1564 2.53213 54.1604 1.86005 54.1523 1.186C54.1523 1.03973 54.1864 0.970541 54.3429 0.994261C54.391 1.00019 54.4412 1.00019 54.4893 0.994261C54.6057 0.982401 54.6318 1.03775 54.6318 1.14251C54.6277 2.14667 54.6277 3.15083 54.6318 4.15499C54.6318 4.26964 54.5876 4.27953 54.4833 4.29732C54.1925 4.34278 54.044 4.22813 53.9176 3.96721C53.5947 3.30106 53.2356 2.65271 52.8886 1.99645C52.8605 1.94505 52.8304 1.89563 52.8003 1.84424L52.7602 1.8561L52.7662 1.85412Z" fill="#B0B7BE"/>
<path d="M68.5269 2.63301C68.5329 2.97893 68.4968 3.31694 68.3524 3.63519C68.1358 4.10762 67.7446 4.34285 67.199 4.32901C66.7115 4.31715 66.3264 4.06018 66.1599 3.5838C65.9373 2.94532 65.9352 2.29499 66.172 1.66047C66.3405 1.20781 66.6714 0.919213 67.1809 0.901422C67.7386 0.881655 68.1458 1.14653 68.3604 1.64466C68.4968 1.96093 68.5329 2.29301 68.5249 2.63103L68.5269 2.63301ZM67.9793 2.65475C67.9873 2.34638 67.9733 2.04 67.8469 1.75338C67.7386 1.50431 67.5661 1.33234 67.2672 1.33234C66.9944 1.33234 66.7818 1.47071 66.6835 1.76721C66.4949 2.34243 66.4889 2.92753 66.6875 3.50077C66.7938 3.81111 67.0124 3.95739 67.2812 3.95146C67.5581 3.94751 67.7586 3.78542 67.873 3.47112C67.9693 3.20625 67.9853 2.93149 67.9773 2.65277L67.9793 2.65475Z" fill="#B0B7BE"/>
<path d="M57.5824 2.63694C57.5764 2.96903 57.5523 3.29716 57.4139 3.6075C57.2013 4.08586 56.8082 4.3369 56.2766 4.33097C55.7751 4.32504 55.3759 4.06412 55.2014 3.57983C54.9687 2.92949 54.9707 2.2673 55.2255 1.6229C55.392 1.20186 55.7129 0.927104 56.1903 0.905361C56.6938 0.88164 57.093 1.07733 57.3437 1.52407C57.5403 1.87196 57.5784 2.25149 57.5824 2.63892V2.63694ZM57.0148 2.6409C57.0228 2.35032 57.0108 2.0637 56.9044 1.78894C56.7841 1.47663 56.5755 1.3264 56.2766 1.33035C55.9937 1.3343 55.7811 1.48849 55.6868 1.80871C55.5264 2.35625 55.5244 2.91368 55.6868 3.46123C55.7831 3.78936 56.0038 3.95145 56.2886 3.95342C56.5735 3.9554 56.7861 3.79331 56.9064 3.47704C57.0087 3.20821 57.0248 2.92554 57.0168 2.64287L57.0148 2.6409Z" fill="#B0B7BE"/>
<path d="M51.8796 2.64083C51.8876 2.98676 51.8495 3.32477 51.7011 3.64499C51.4924 4.0937 51.1374 4.32695 50.6339 4.33091C50.1224 4.33486 49.7373 4.11149 49.5487 3.64895C49.2699 2.96304 49.2739 2.25933 49.5647 1.57737C49.7413 1.16424 50.0722 0.915181 50.5416 0.903321C51.0491 0.891461 51.4403 1.09506 51.673 1.55563C51.8455 1.8976 51.8876 2.26526 51.8796 2.64281V2.64083ZM49.8977 2.63886C49.8897 2.8306 49.8977 3.04606 49.9399 3.25756C49.9559 3.33861 49.98 3.42163 50.0101 3.49872C50.1124 3.75569 50.2809 3.93952 50.5858 3.95138C50.8626 3.96127 51.0892 3.8229 51.1956 3.52442C51.4022 2.94129 51.3982 2.34433 51.2016 1.75923C51.0993 1.45086 50.8666 1.3204 50.5577 1.33226C50.2889 1.34215 50.1043 1.49435 49.996 1.79679C49.9017 2.06166 49.8917 2.33642 49.8957 2.63886H49.8977Z" fill="#B0B7BE"/>
<path d="M44.5199 2.62898C44.5199 2.13678 44.524 1.64261 44.5179 1.15041C44.5179 1.02193 44.542 0.97251 44.6864 0.974487C45.2782 0.982394 45.872 0.986347 46.4637 0.974487C46.6422 0.970534 46.6262 1.06344 46.6262 1.17611C46.6262 1.28878 46.6422 1.38366 46.4637 1.37773C46.0425 1.3639 45.6212 1.37773 45.2 1.3718C45.0816 1.3718 45.0395 1.40541 45.0435 1.52401C45.0515 1.75726 45.0515 1.99248 45.0435 2.22771C45.0395 2.35027 45.0876 2.38189 45.204 2.37992C45.5209 2.37399 45.8399 2.38782 46.1568 2.37399C46.3433 2.36608 46.3032 2.48073 46.3072 2.58352C46.3112 2.68828 46.3233 2.78118 46.1548 2.77328C45.8378 2.75944 45.5189 2.77328 45.202 2.76735C45.0916 2.76537 45.0535 2.797 45.0555 2.90967C45.0636 3.19234 45.0636 3.475 45.0555 3.75767C45.0515 3.8822 45.0997 3.90592 45.214 3.90592C45.6353 3.89999 46.0565 3.91383 46.4777 3.89999C46.6523 3.89406 46.6743 3.95732 46.6743 4.10557C46.6743 4.24394 46.6543 4.30521 46.4878 4.30126C45.89 4.29138 45.2902 4.29335 44.6925 4.30126C44.5581 4.30126 44.5139 4.27161 44.5159 4.13324C44.524 3.63512 44.5199 3.13501 44.5199 2.63689V2.62898Z" fill="#B0B7BE"/>
<path d="M47.2961 2.67838C47.2881 2.92547 47.3041 3.21407 47.4124 3.48883C47.4987 3.71219 47.6371 3.8901 47.8939 3.93951C48.2369 4.00474 48.4816 3.8387 48.618 3.45522C48.7123 3.19035 48.7103 3.20023 48.9972 3.2536C49.1717 3.28523 49.1917 3.35243 49.1356 3.50859C48.945 4.03637 48.5839 4.32101 48.0564 4.33288C47.4907 4.34474 47.0714 4.08776 46.8829 3.55999C46.6582 2.92745 46.6542 2.27909 46.9029 1.65248C47.1878 0.938892 47.8116 0.751106 48.5137 0.998193C48.8968 1.13261 49.0854 1.46074 49.1416 1.82643C49.1656 1.98852 48.9089 1.94503 48.7865 2.00828C48.7123 2.04584 48.6642 2.0241 48.6481 1.93119C48.6341 1.8541 48.606 1.78096 48.5759 1.70783C48.4816 1.48446 48.3191 1.34807 48.0644 1.33423C47.7976 1.32039 47.603 1.42911 47.4766 1.65643C47.3081 1.9648 47.2961 2.30083 47.2981 2.68234L47.2961 2.67838Z" fill="#B0B7BE"/>
<path d="M63.9313 2.67251C63.9353 2.90378 63.9313 3.16866 64.0155 3.42563C64.0556 3.54621 64.1078 3.66085 64.1961 3.75771C64.4548 4.04631 64.9122 4.01468 65.1248 3.69446C65.1669 3.62923 65.195 3.55411 65.2311 3.48493C65.2793 3.39598 65.2592 3.23191 65.3415 3.21808C65.4638 3.19633 65.6002 3.26156 65.7326 3.28726C65.8209 3.30307 65.7908 3.35842 65.7828 3.41179C65.7025 3.8605 65.3716 4.20642 64.9302 4.30328C64.4308 4.412 63.9694 4.24991 63.6986 3.86643C63.5301 3.62923 63.4498 3.35842 63.4198 3.07378C63.3736 2.62902 63.3716 2.18426 63.516 1.75335C63.7347 1.10301 64.2542 0.806509 64.9242 0.940924C65.3395 1.02592 65.6805 1.38173 65.7406 1.79486C65.7507 1.86602 65.7407 1.91346 65.6584 1.92334C65.6464 1.92334 65.6363 1.93125 65.6243 1.9352C65.512 1.96485 65.3916 2.03601 65.2913 2.01229C65.175 1.98462 65.2051 1.82253 65.1629 1.72369C65.0707 1.51021 64.9403 1.35208 64.6855 1.33429C64.4187 1.3165 64.2221 1.42917 64.0978 1.65649C63.9293 1.96485 63.9313 2.30484 63.9293 2.67448L63.9313 2.67251Z" fill="#B0B7BE"/>
<path d="M62.7079 2.6172C62.7079 3.0501 62.7119 3.48299 62.7058 3.91391C62.7058 4.03845 62.742 4.09182 62.8723 4.07798C62.9385 4.07007 63.0067 4.07996 63.0729 4.07798C63.1572 4.07205 63.1953 4.10368 63.1913 4.19065C63.1893 4.26774 63.1552 4.29344 63.079 4.29344C62.6637 4.29344 62.2485 4.29344 61.8333 4.29344C61.7591 4.29344 61.7209 4.27367 61.7209 4.19263C61.7209 4.10763 61.749 4.07996 61.8373 4.07403C62.1803 4.05228 62.1783 4.04833 62.1783 3.71229C62.1783 2.92557 62.1743 2.13884 62.1823 1.35212C62.1823 1.21573 62.1422 1.16433 62.0058 1.1841C61.9516 1.19201 61.8955 1.1841 61.8413 1.1841C61.7711 1.18805 61.723 1.17422 61.723 1.08922C61.723 1.00027 61.7831 0.998291 61.8473 0.998291C62.2565 0.998291 62.6657 0.998291 63.0729 0.998291C63.1431 0.998291 63.1913 1.0141 63.1873 1.0991C63.1833 1.17224 63.1391 1.18212 63.0769 1.18608C62.9586 1.19596 62.8041 1.12875 62.7299 1.22166C62.6557 1.31456 62.7079 1.46479 62.7058 1.5913C62.7018 1.93327 62.7058 2.27524 62.7058 2.61918L62.7079 2.6172Z" fill="#B0B7BE"/>
</svg>
