<svg width="141" height="26" viewBox="0 0 141 26" fill="none" xmlns="http://www.w3.org/2000/svg">
<path d="M70.1875 6.10881C69.863 5.38505 69.3302 4.80367 68.7994 4.23218C63.3896 -1.58955 52.1653 -1.03586 47.8971 5.83987C47.8971 5.99412 47.853 6.1187 47.6948 6.17803L47.6888 6.18791C47.6407 6.25317 47.5946 6.31645 47.5506 6.38368L47.5305 6.42719C47.4344 6.73963 47.7429 7.23203 47.124 7.30915C46.8716 7.43175 46.8255 7.68289 46.7294 7.90635C45.8701 9.88384 45.6598 11.9523 45.8441 14.0761C45.8681 16.7121 46.7234 19.0515 48.4299 21.0863C48.9666 22.0691 49.7738 22.8166 50.6871 23.4237C55.3919 26.56 60.3712 26.7241 65.4486 24.5054C67.1731 23.75 68.7013 22.5971 69.6006 20.8411C71.6195 18.652 72.0602 15.9646 72.0922 13.1507C72.2444 10.5957 71.6536 8.23659 70.1894 6.10881H70.1875ZM57.2226 8.04478C57.3748 7.64335 57.6572 7.42187 58.0979 7.51679C58.8109 7.67301 59.6501 7.11733 60.249 7.89251C62.4963 8.6835 63.8242 10.2101 64.0866 12.5871C64.0305 14.442 63.694 16.1604 62.0717 17.3983C59.6241 19.267 55.2117 18.5096 54.1882 15.0767C54.074 14.6891 53.9819 14.2956 53.8778 13.9061C53.7436 12.8402 53.9098 11.7842 54.2323 10.7915C54.5307 9.87395 55.2878 9.22138 56.097 8.67362C56.4034 8.46796 56.7259 8.28603 57.0404 8.09224C57.1065 8.10014 57.1665 8.08235 57.2186 8.04478H57.2226Z" fill="#B0B7BE"/>
<path d="M123.495 12.8343C123.495 9.02371 123.511 5.21111 123.479 1.40049C123.473 0.751871 123.639 0.558077 124.306 0.575874C126.926 0.643109 129.584 0.338576 132.143 1.0307C137.036 2.35364 139.844 5.72526 140.74 10.5009C141.699 15.6246 140.001 19.9276 135.743 23.1153C133.87 24.5173 131.661 25.0354 129.355 25.1284C127.713 25.1956 126.063 25.1126 124.42 25.1679C123.699 25.1917 123.469 25.0236 123.477 24.2682C123.519 20.4576 123.497 16.645 123.497 12.8343H123.495ZM125.063 12.8343C125.063 16.1447 125.091 19.4569 125.043 22.7673C125.033 23.5306 125.267 23.7184 125.99 23.671C126.936 23.6097 127.887 23.667 128.837 23.6453C133.193 23.5484 136.357 21.563 138.272 17.7108C141.243 11.7348 138.168 4.46164 131.903 2.56523C129.934 1.97 127.901 2.12425 125.882 2.07481C125.209 2.05701 125.041 2.25279 125.049 2.90338C125.083 6.2137 125.065 9.52402 125.063 12.8363V12.8343Z" fill="#B0B7BE"/>
<path d="M43.4949 21.2703C43.4388 22.3935 43.4628 23.5206 43.4868 24.6439C43.4989 25.1323 43.2926 25.3241 42.8219 25.3221C38.1051 25.3142 33.3902 25.3043 28.6734 25.3103C28.1306 25.3103 27.9464 25.0908 27.9604 24.5826C28.0165 22.7099 27.8743 20.8352 28.0465 18.9645C27.9023 17.7741 27.9444 16.5816 28.0185 15.3872C27.9384 12.8244 27.9223 10.2596 28.0084 7.69677C27.9904 5.51362 27.9904 3.33047 27.9504 1.14732C27.9384 0.58176 28.1807 0.465088 28.6794 0.467066C33.3902 0.476953 38.0991 0.476953 42.8119 0.467066C43.2966 0.467066 43.4829 0.623287 43.4708 1.11568C43.4448 2.27054 43.4348 3.42539 43.4768 4.58024C43.4989 5.18931 43.2305 5.30203 42.6877 5.29807C40.6948 5.27632 38.7019 5.33762 36.7131 5.27039C35.8438 5.24073 35.6235 5.53537 35.6575 6.32835C35.7096 7.48122 35.6575 8.63608 35.6535 9.79291C37.8627 9.81071 40.0719 9.83641 42.2811 9.84235C42.896 9.84235 43.2245 9.8028 43.0462 10.6986C42.8479 11.6992 43.2485 12.7789 43.1383 13.8309C43.1103 14.1058 43.3206 14.4776 42.872 14.6219C40.5045 14.6437 38.1371 14.6674 35.7677 14.6892C35.7096 14.8138 35.6495 14.9364 35.5934 15.0609C35.5734 15.0926 35.5734 15.1262 35.5934 15.1598C35.7076 15.668 35.7296 16.1723 35.5754 16.6785C35.7497 17.4082 35.7256 18.1379 35.5694 18.8676L35.5654 18.9586C35.5654 19.0258 35.5654 19.095 35.5654 19.1623C35.7363 20.031 36.2818 20.4641 37.2018 20.4615C39.0064 20.4615 40.809 20.4793 42.6136 20.4476C43.2425 20.4358 43.5269 20.5801 43.4929 21.2742L43.4949 21.2703Z" fill="#B0B7BE"/>
<path d="M90.3647 12.8422C90.3647 9.02964 90.3807 5.21507 90.3487 1.40247C90.3427 0.73803 90.5389 0.564011 91.1979 0.575876C93.351 0.617403 95.5041 0.607516 97.6573 0.581808C98.2241 0.575876 98.4824 0.65102 98.4884 1.32139C98.4945 2.03329 98.2201 2.11832 97.6072 2.10448C95.9608 2.06493 94.3144 2.11041 92.668 2.08075C92.1472 2.07086 91.957 2.18951 91.963 2.7432C91.993 5.27439 91.993 7.80756 91.963 10.3387C91.957 10.8944 92.1512 11.0032 92.666 10.9953C94.723 10.9676 96.782 10.9992 98.841 10.9755C99.4218 10.9696 99.7523 11.0052 99.7603 11.7507C99.7683 12.5001 99.3877 12.4507 98.885 12.4487C96.826 12.4388 94.767 12.4764 92.71 12.427C92.0231 12.4112 91.961 12.692 91.965 13.2417C91.985 16.4611 91.991 19.6804 91.959 22.8998C91.953 23.5088 92.1132 23.6828 92.7381 23.6749C95.5882 23.6413 98.4384 23.6789 101.286 23.6433C101.939 23.6354 102.126 23.7936 102.152 24.458C102.18 25.2016 101.799 25.162 101.291 25.162C97.9336 25.1521 94.5768 25.1323 91.2219 25.1758C90.4848 25.1857 90.3386 24.9662 90.3447 24.286C90.3767 20.4734 90.3606 16.6588 90.3606 12.8462L90.3647 12.8422Z" fill="#B0B7BE"/>
<path d="M106.955 12.7651C106.955 8.98214 106.969 5.1992 106.941 1.41626C106.937 0.779512 107.081 0.560011 107.766 0.573853C109.951 0.619336 112.136 0.609448 114.322 0.577808C114.896 0.569898 115.099 0.704368 115.079 1.29761C115.061 1.84933 115.007 2.13409 114.314 2.10839C112.637 2.05104 110.957 2.10839 109.278 2.0807C108.75 2.07279 108.493 2.13212 108.503 2.76887C108.545 5.26841 108.541 7.77192 108.507 10.2715C108.499 10.8568 108.669 11.0012 109.246 10.9952C112.032 10.9656 114.82 10.9952 117.606 10.9735C118.173 10.9695 118.44 11.0427 118.44 11.721C118.44 12.4111 118.149 12.4526 117.598 12.4487C114.842 12.4289 112.086 12.4625 109.332 12.423C108.655 12.4131 108.495 12.6148 108.501 13.2595C108.535 16.4472 108.545 19.6369 108.495 22.8265C108.483 23.574 108.737 23.6769 109.4 23.669C112.251 23.6353 115.101 23.6749 117.951 23.6393C118.602 23.6314 118.73 23.8469 118.742 24.4362C118.752 25.0315 118.56 25.1679 117.987 25.1639C114.566 25.1402 111.145 25.1363 107.726 25.1659C107.109 25.1719 106.933 25.0117 106.937 24.3927C106.965 20.5168 106.951 16.639 106.951 12.7631L106.955 12.7651Z" fill="#B0B7BE"/>
<path d="M10.6953 6.90381L10.7085 6.91035C10.7085 6.91035 10.7019 6.91035 10.6997 6.91035L10.6953 6.90599V6.90381Z" fill="#B0B7BE"/>
<path d="M11.2822 7.6355L11.2956 7.64641H11.2822V7.6355Z" fill="#B0B7BE"/>
<path d="M75.8555 12.8777C75.8555 9.06711 75.8755 5.25847 75.8375 1.44785C75.8315 0.743861 76.0138 0.559955 76.7248 0.57182C79.4768 0.615324 82.2288 0.60346 84.9807 0.577752C85.5896 0.57182 85.864 0.656852 85.88 1.36677C85.8961 2.16765 85.4614 2.09844 84.9327 2.09449C82.7175 2.08262 80.5042 2.10833 78.289 2.07669C77.6621 2.0668 77.4078 2.18743 77.4198 2.88153C77.4639 5.31582 77.4519 7.75406 77.4258 10.1884C77.4198 10.7776 77.562 11.0248 78.2109 10.9952C79.2524 10.9457 80.3 11.0189 81.3415 10.9695C81.9924 10.9378 81.9383 11.3037 81.9564 11.7308C81.9784 12.2093 81.9143 12.4822 81.3134 12.4546C80.304 12.4071 79.2865 12.4822 78.2771 12.4288C77.6041 12.3933 77.4198 12.6207 77.4238 13.2713C77.4519 16.9257 77.4378 20.5781 77.4358 24.2325C77.4358 25.0709 76.8209 25.4743 76.0678 25.1322C75.6633 24.9483 75.8635 24.5825 75.8615 24.3076C75.8475 20.497 75.8515 16.6884 75.8515 12.8777H75.8555Z" fill="#B0B7BE"/>
<path d="M23.7301 20.2597C23.7462 21.8793 23.7542 23.4989 23.7842 25.1184C23.7922 25.5614 23.604 25.7236 23.1653 25.7236C21.8074 25.7236 20.4494 25.7433 19.0914 25.7552C18.8591 25.7591 18.6588 25.684 18.5126 25.4981C17.1807 23.8014 15.6765 22.2392 14.4487 20.4615C14.4768 20.4219 14.5048 20.3824 14.5329 20.3408C14.4828 20.3408 14.4327 20.3349 14.3806 20.3309L14.3646 20.3349C13.0186 18.9684 11.8149 17.4853 10.6893 15.9409C10.479 15.8658 10.3668 15.7016 10.2867 15.5078C10.2647 15.4663 10.2306 15.4307 10.1906 15.403C8.7004 13.6292 7.20825 11.8554 5.71809 10.0816C5.99249 11.104 6.80767 11.9879 6.46918 13.1527C6.54729 15.9587 6.55729 18.7628 6.44913 21.5669C6.46716 22.5635 6.47718 23.5602 6.50722 24.5568C6.52525 25.073 6.28489 25.3023 5.77616 25.3043C4.06969 25.3043 2.36323 25.3043 0.654757 25.3201C0.136006 25.3241 0.0138261 25.0492 0.0258435 24.6082C0.0679044 22.9867 0.0959469 21.3671 0.127993 19.7456C-0.104343 18.1438 0.0558909 16.5302 0.0298532 14.9245C0.00581841 13.5304 0.0498685 12.1362 0.0658917 10.7421C0.0618859 8.36317 0.0598977 5.98227 0.0558919 3.60335C0.0418716 2.60868 0.0498851 1.614 0.00782425 0.6213C-0.0142076 0.10913 0.212113 -0.00754154 0.676786 0.000368417C2.0007 0.0221208 3.3226 0.0122334 4.64652 0.00432339C4.975 0.00432339 5.23539 0.0577156 5.46171 0.344452C7.00395 2.29426 8.5622 4.22824 10.1165 6.16618C10.1685 6.23539 10.2206 6.30263 10.2727 6.37184C10.2727 6.37184 10.2947 6.39557 10.2947 6.39755C10.3468 6.45292 10.3949 6.51224 10.4469 6.56761L10.471 6.60123C10.471 6.76141 10.517 6.88994 10.7033 6.91169C10.7594 6.97893 10.8155 7.05012 10.8715 7.11933C10.9276 7.18459 10.9877 7.24985 11.0438 7.31708L11.0518 7.32697C11.0518 7.49505 11.0778 7.63941 11.2901 7.6493C11.2761 7.8866 11.4203 8.00129 11.6306 8.06655C13.3271 10.1152 15.0275 12.1639 16.716 14.2185C17.0284 14.5982 17.3028 15.0075 17.5953 15.4011C17.8637 15.5395 17.9698 15.9053 18.3744 15.9211C18.3844 15.3595 17.8997 14.9917 17.8376 14.4815C17.401 13.9832 17.2748 13.4058 17.2868 12.7552C17.3209 10.7006 17.3189 8.64595 17.3309 6.58936C17.3169 4.77601 17.3149 2.96463 17.2808 1.15522C17.2728 0.66876 17.4391 0.496718 17.9338 0.502651C19.6723 0.522426 21.4168 0.524403 23.1553 0.502651C23.656 0.496718 23.8163 0.672715 23.8083 1.1572C23.7722 2.96858 23.7682 4.77996 23.7522 6.58936C23.7522 8.905 23.7482 11.2187 23.7462 13.5323C23.8203 15.7768 23.8203 18.0193 23.7322 20.2637L23.7301 20.2597Z" fill="#B0B7BE"/>
<path d="M42.8719 14.618C40.5045 14.8059 38.137 14.6971 35.7676 14.6853C38.135 14.6635 40.5045 14.6398 42.8719 14.618Z" fill="#B0B7BE"/>
<path d="M47.124 7.30921C47.0699 6.92953 47.2282 6.64675 47.5306 6.42725C47.4345 6.73969 47.7429 7.23209 47.124 7.30921Z" fill="#B0B7BE"/>
<path d="M11.6254 8.06163C11.4146 7.99821 11.2701 7.88128 11.2841 7.64345V7.63354C11.2841 7.63354 11.2922 7.63355 11.2942 7.63751C11.4909 7.70886 11.5953 7.85551 11.6254 8.05766C11.6254 8.05766 11.6254 8.05898 11.6254 8.06163Z" fill="#B0B7BE"/>
<path d="M47.8995 5.84192C47.8995 5.9965 47.8553 6.12136 47.6967 6.18082C47.6927 6.02822 47.7449 5.90534 47.8995 5.84192Z" fill="#B0B7BE"/>
<path d="M10.7076 6.9104C10.7076 6.9104 10.7016 6.9104 10.6996 6.9104C10.513 6.89058 10.4688 6.75977 10.4668 6.59924C10.6254 6.64483 10.6876 6.76176 10.7076 6.91238V6.9104Z" fill="#B0B7BE"/>
<path d="M11.2947 7.64604H11.2827C11.0719 7.63613 11.0418 7.49146 11.0438 7.323C11.2044 7.37254 11.2666 7.49146 11.2907 7.64009C11.2907 7.64009 11.2907 7.64406 11.2907 7.64604H11.2947Z" fill="#B0B7BE"/>
<path d="M35.6414 15.1085L35.5912 15.158C35.5731 15.1244 35.5731 15.0907 35.5912 15.059L35.6394 15.1105L35.6414 15.1085Z" fill="#B0B7BE"/>
<path d="M10.2829 15.5081C10.2508 15.4744 10.2186 15.4387 10.1865 15.4031C10.2267 15.4308 10.2608 15.4665 10.2829 15.5081Z" fill="#B0B7BE"/>
<path d="M35.6161 18.9036L35.5635 18.9556L35.5675 18.8636L35.6161 18.9036Z" fill="#B0B7BE"/>
<path d="M14.5293 20.3408C14.5032 20.3825 14.473 20.4223 14.4449 20.462C14.3865 20.4382 14.3624 20.3945 14.3765 20.3329C14.4288 20.3369 14.4791 20.3408 14.5293 20.3428V20.3408Z" fill="#B0B7BE"/>
<path d="M60.2491 7.89648C59.2316 7.79958 58.2201 7.79958 57.2207 8.04677C57.3729 7.64534 57.6554 7.42386 58.096 7.51878C58.809 7.675 59.6482 7.11932 60.2471 7.8945L60.2491 7.89648Z" fill="#B0B7BE"/>
</svg>
