<svg width="29" height="28" viewBox="0 0 29 28" fill="none" xmlns="http://www.w3.org/2000/svg">
<path d="M0 21.4039V6.56524C0.0538551 6.22244 0.0478878 5.87578 0.0917698 5.53298C0.161582 4.99182 0.283237 4.46606 0.472727 3.95571C0.773917 3.1507 1.25862 2.45739 1.87895 1.85075C2.4574 1.28647 3.11963 0.837747 3.88357 0.537313C4.55178 0.273471 5.24989 0.13481 5.96596 0.0616273C6.24321 0.0327395 6.52447 0.0577756 6.79773 0H22.1684C22.2402 0.0327395 22.316 0.0231103 22.3898 0.026962C23.3512 0.0731825 24.2967 0.194511 25.1903 0.56235C26.1297 0.949446 26.9316 1.50987 27.5599 2.29177C28.3996 3.33751 28.7886 4.54502 28.9322 5.84112C28.9581 6.08185 28.9761 6.32258 29 6.56331V21.4675C28.992 21.5233 28.9781 21.5773 28.9761 21.6331C28.9481 22.2956 28.8424 22.9485 28.6549 23.5859C28.3777 24.5238 27.9269 25.3731 27.2288 26.0838C26.1537 27.1777 24.7953 27.715 23.2734 27.9076C22.9722 27.9461 22.667 27.9692 22.3658 28H6.8017C6.74186 27.9673 6.67605 27.9769 6.61222 27.975C5.97992 27.9538 5.35161 27.8844 4.73925 27.7323C2.98398 27.2971 1.68947 26.2821 0.809833 24.7646C0.343089 23.9615 0.16557 23.0775 0.0658385 22.1743C0.0379136 21.9181 0.0578464 21.6582 0.00199658 21.4039H0ZM10.6613 11.0525L10.6952 11.039C11.0363 11.4492 11.3774 11.8594 11.7165 12.2715C11.8481 12.4314 11.914 12.4333 12.0496 12.2715C12.287 11.9846 12.5223 11.6957 12.7597 11.4088C12.8674 11.2797 12.9771 11.1545 13.1107 10.9966C13.1107 11.0775 13.1107 11.1141 13.1107 11.1507C13.1107 11.8556 13.1127 12.5604 13.1088 13.2653C13.1088 13.3808 13.1387 13.4174 13.2603 13.4136C13.5017 13.4039 13.743 13.4039 13.9844 13.4136C14.11 13.4194 14.138 13.3731 14.136 13.2634C14.13 12.8801 14.136 12.4969 14.136 12.1136C14.136 11.0871 14.136 10.0607 14.136 9.03611C14.136 8.98219 14.1599 8.91863 14.1001 8.87819C14.0283 8.83004 13.749 8.88204 13.6852 8.9533C13.1227 9.59846 12.5582 10.2417 11.9997 10.8907C11.912 10.9928 11.8641 10.9947 11.7763 10.8907C11.2438 10.2744 10.6992 9.66779 10.1726 9.04574C10.0569 8.909 9.94525 8.85123 9.76972 8.86278C9.66799 8.86856 9.6321 8.8936 9.6321 8.99567C9.63609 10.4266 9.63609 11.8556 9.6321 13.2865C9.6321 13.3962 9.67598 13.4155 9.77571 13.4117C9.99512 13.4059 10.2165 13.4117 10.4359 13.4097C10.6793 13.4097 10.6633 13.4444 10.6633 13.196C10.6633 12.4815 10.6633 11.767 10.6633 11.0525H10.6613ZM8.19198 11.0563C8.32562 10.9562 8.43333 10.8387 8.51311 10.6923C8.84821 10.0761 8.50711 8.94945 7.30236 8.89937C6.63216 8.87241 5.95997 8.89552 5.28978 8.88974C5.18406 8.88974 5.15216 8.92056 5.15216 9.02263C5.15615 9.43284 5.15216 9.84112 5.15216 10.2513C5.15216 11.2508 5.15216 12.2523 5.15216 13.2518C5.15216 13.3327 5.13021 13.4155 5.27183 13.4136C6.01782 13.4078 6.76381 13.4194 7.50981 13.4059C8.12615 13.3943 8.63278 13.0111 8.77639 12.4603C8.91003 11.9461 8.82827 11.3953 8.18998 11.0563H8.19198ZM17.9218 11.9153C17.6804 11.6899 17.459 11.48 17.2317 11.274C17.1718 11.22 17.1738 11.1911 17.2396 11.1468C17.3593 11.0679 17.475 10.9831 17.5847 10.8946C18.2848 10.3361 18.231 9.29995 17.479 8.87049C17.1678 8.69138 16.8228 8.64709 16.4697 8.67983C15.9691 8.72605 15.5562 8.92826 15.3407 9.38662C15.1393 9.81415 15.1872 10.234 15.4644 10.6249C15.5655 10.7662 15.5462 10.8933 15.4066 11.0063C14.5708 11.6822 14.7124 12.9225 15.6938 13.3674C16.3141 13.6485 16.9484 13.6254 17.5787 13.3674C17.7263 13.3077 17.84 13.1093 17.9956 13.1709C18.1352 13.2248 18.233 13.3885 18.3427 13.5079C18.3985 13.5696 18.4444 13.585 18.5122 13.5195C18.6598 13.3751 18.8094 13.2345 18.965 13.0997C19.0368 13.038 19.0268 12.9995 18.965 12.9417C18.8513 12.8397 18.7496 12.7222 18.6339 12.624C18.5621 12.5623 18.5641 12.5161 18.608 12.4391C18.8254 12.0693 18.8852 11.661 18.8872 11.2431C18.8872 11.1584 18.8493 11.1372 18.7715 11.1391C18.588 11.143 18.4065 11.1488 18.223 11.1391C18.0854 11.1314 18.0315 11.1642 18.0395 11.3086C18.0495 11.5089 18.0155 11.7092 17.9218 11.9191V11.9153ZM23.3133 10.4593C23.4469 10.4593 23.5826 10.4555 23.7162 10.4593C23.808 10.4632 23.8279 10.4266 23.808 10.3476C23.7302 10.0414 23.5945 9.76216 23.3751 9.5272C22.5414 8.63361 20.8918 8.59509 19.9743 9.44824C19.5734 9.82186 19.35 10.2802 19.2881 10.8156C19.2064 11.5147 19.342 12.156 19.8307 12.6991C20.4849 13.4251 21.5919 13.6196 22.4855 13.3269C23.2175 13.0881 23.6564 12.5932 23.8199 11.8652C23.8359 11.7901 23.8399 11.7516 23.7401 11.7535C23.4769 11.7593 23.2136 11.7554 22.9503 11.7535C22.8904 11.7535 22.8545 11.765 22.8326 11.8286C22.5733 12.6028 21.5401 12.7106 20.9856 12.3909C20.4769 12.0982 20.2894 11.6418 20.2974 11.0929C20.3114 10.2051 20.9596 9.64275 21.8712 9.74097C22.1963 9.77564 22.5194 9.88156 22.665 10.1743C22.8067 10.4593 23.0161 10.4863 23.2794 10.4593C23.2894 10.4593 23.3013 10.4593 23.3113 10.4593H23.3133ZM16.6412 15.5031C17.0601 16.7164 17.471 17.9066 17.8839 19.0968C17.9118 19.1777 17.9058 19.2855 18.0494 19.2874C18.201 19.2874 18.1831 19.1738 18.209 19.0948C18.4783 18.2455 18.7436 17.3943 19.0109 16.545C19.1964 15.9519 19.3799 15.3587 19.5654 14.7636C19.5774 14.7251 19.6093 14.6846 19.5753 14.648C19.5095 14.5768 19.2063 14.648 19.1784 14.7405C18.8393 15.8652 18.4843 16.988 18.1711 18.1204C18.1352 18.2494 18.1253 18.39 18.0315 18.5209C17.8699 18.051 17.7144 17.6004 17.5588 17.1517C17.2915 16.3775 17.0262 15.6033 16.7609 14.8291C16.739 14.7675 16.725 14.7116 16.6353 14.7155C16.5575 14.7193 16.5435 14.7636 16.5236 14.8233C16.2463 15.6495 15.9671 16.4738 15.6878 17.298C15.5482 17.7082 15.4066 18.1184 15.257 18.5575C15.1592 18.2301 15.0715 17.9316 14.9817 17.635C14.6865 16.674 14.3913 15.715 14.0961 14.754C14.0761 14.6866 14.0622 14.6288 13.9644 14.6307C13.6593 14.6365 13.6413 14.6095 13.753 14.883C13.757 14.8926 13.757 14.9042 13.759 14.9138C14.2098 16.3293 14.6626 17.7467 15.1134 19.1623C15.1333 19.2258 15.1473 19.2874 15.247 19.2874C15.3407 19.2874 15.3587 19.2393 15.3826 19.17C15.5901 18.5575 15.8035 17.9451 16.0149 17.3327C16.2224 16.7299 16.4278 16.129 16.6412 15.5051V15.5031ZM5.52515 15.455C5.56505 15.455 5.57901 15.4858 5.59696 15.5089C6.0278 16.0173 6.45864 16.5277 6.88948 17.038C7.49186 17.7525 8.09622 18.4651 8.6986 19.1796C8.74049 19.2297 8.78238 19.2817 8.85818 19.2528C8.926 19.2258 8.89607 19.1623 8.89607 19.116C8.89607 17.6659 8.89607 16.2138 8.90206 14.7636C8.90206 14.6192 8.83025 14.6192 8.72453 14.623C8.6228 14.6269 8.52707 14.6018 8.53106 14.7636C8.54901 15.9403 8.50913 17.117 8.56897 18.2918C8.57096 18.3438 8.56897 18.3977 8.56897 18.4805C8.45128 18.3457 8.35554 18.2398 8.26578 18.1319C7.31035 16.9957 6.35293 15.8575 5.39949 14.7193C5.35162 14.6615 5.30374 14.5999 5.21598 14.6269C5.11824 14.6577 5.16212 14.7405 5.16212 14.8002C5.16012 15.9499 5.16212 17.1016 5.16212 18.2513C5.16212 18.5363 5.1681 18.8214 5.16012 19.1064C5.15613 19.2335 5.20202 19.2759 5.32569 19.2585C5.3576 19.2547 5.38951 19.2547 5.42143 19.2585C5.50919 19.2662 5.54709 19.2374 5.54509 19.1468C5.53512 18.3495 5.55506 17.5503 5.53312 16.753C5.52115 16.3216 5.53112 15.8883 5.53112 15.455H5.52515ZM21.9928 19.3221C22.5653 19.3221 23.056 19.1777 23.3791 18.9119C23.7601 18.5999 23.9017 18.2013 23.812 17.7294C23.7302 17.298 23.415 17.0766 23.0161 16.934C22.7189 16.8281 22.4057 16.7838 22.0926 16.7376C21.7555 16.6875 21.4104 16.676 21.0853 16.5527C20.834 16.4584 20.6425 16.2985 20.5986 16.0385C20.5328 15.6456 20.6186 15.299 21.0554 15.0852C21.6857 14.7752 22.328 14.8117 22.9503 15.1257C23.1477 15.2258 23.2914 15.3934 23.3233 15.6071C23.3512 15.7901 23.4569 15.7939 23.5985 15.7862C23.6843 15.7824 23.7082 15.7593 23.6943 15.6745C23.6444 15.3702 23.5068 15.116 23.2515 14.9254C22.9483 14.7 22.5932 14.6095 22.2202 14.5729C21.6637 14.519 21.1372 14.6038 20.6804 14.9369C20.3194 15.2008 20.1638 15.5648 20.2136 16C20.2635 16.4295 20.5348 16.6818 20.9357 16.8281C21.1631 16.9109 21.4004 16.9494 21.6378 16.986C22.0706 17.0534 22.5115 17.0766 22.9263 17.2325C23.2016 17.3365 23.4031 17.506 23.4549 17.8045C23.5227 18.1993 23.3432 18.5729 22.9742 18.7732C22.4915 19.0371 21.9749 19.064 21.4463 18.9485C20.9576 18.8406 20.5507 18.6346 20.4251 18.105C20.3912 17.9605 20.2535 18.051 20.1658 18.0414C20.066 18.0318 20.1019 18.1184 20.1119 18.1666C20.1738 18.5383 20.3852 18.8137 20.7123 19.0063C21.1033 19.2374 21.5361 19.3182 21.9889 19.3202L21.9928 19.3221ZM10.2165 16.9398C10.2165 17.6601 10.2185 18.3804 10.2145 19.1026C10.2145 19.2181 10.2385 19.2643 10.3741 19.2624C11.2059 19.2566 12.0396 19.2547 12.8714 19.2624C13.013 19.2624 13.021 19.2046 13.025 19.0968C13.027 18.9831 13.005 18.9331 12.8674 18.935C12.1593 18.9427 11.4492 18.935 10.7411 18.9408C10.6134 18.9408 10.5796 18.9061 10.5796 18.7848C10.5855 18.2513 10.5875 17.7159 10.5796 17.1825C10.5796 17.0534 10.6214 17.0265 10.7451 17.0284C11.4053 17.0342 12.0656 17.0284 12.7258 17.0342C12.8594 17.0342 12.8973 16.9995 12.8973 16.8705C12.8973 16.7395 12.8574 16.7049 12.7238 16.7068C12.0636 16.7126 11.4033 16.7068 10.7431 16.7126C10.6214 16.7126 10.5776 16.6875 10.5796 16.5604C10.5875 16.0732 10.5875 15.5859 10.5796 15.0987C10.5776 14.9697 10.6234 14.9446 10.7451 14.9446C11.4432 14.9504 12.1413 14.9446 12.8395 14.9504C12.9751 14.9504 12.9951 14.9023 12.997 14.7886C12.999 14.6692 12.9651 14.6288 12.8355 14.6288C12.0197 14.6346 11.2039 14.6346 10.3861 14.6288C10.2524 14.6288 10.2125 14.6673 10.2145 14.7963C10.2205 15.5108 10.2165 16.2273 10.2185 16.9437L10.2165 16.9398Z" fill="#B0B7BE"/>
<path d="M6.79961 12.5507C6.62807 12.5507 6.45651 12.5488 6.28497 12.5507C6.21116 12.5507 6.17925 12.5296 6.18124 12.4525C6.18523 12.1829 6.18323 11.9133 6.18124 11.6437C6.18124 11.5743 6.19919 11.5397 6.28097 11.5416C6.62406 11.5455 6.96915 11.532 7.31223 11.5474C7.69521 11.5647 7.81092 11.7689 7.82288 12.05C7.83685 12.3389 7.62539 12.5257 7.30025 12.545C7.1347 12.5546 6.96714 12.545 6.80158 12.545V12.5488L6.79961 12.5507Z" fill="#B0B7BE"/>
<path d="M6.66625 10.7328C6.5346 10.7174 6.31519 10.806 6.20947 10.6981C6.11373 10.5999 6.18553 10.3919 6.18154 10.2321C6.17755 10.0973 6.18154 9.96247 6.18154 9.82766C6.18154 9.76026 6.20749 9.73715 6.27531 9.73715C6.56453 9.73907 6.85375 9.72944 7.14297 9.74292C7.44216 9.7564 7.62567 9.96632 7.62168 10.261C7.61769 10.546 7.4302 10.7251 7.12103 10.7328C6.98141 10.7367 6.84178 10.7328 6.66625 10.7328Z" fill="#B0B7BE"/>
<path d="M16.6132 12.7742C16.4736 12.7664 16.31 12.7433 16.1584 12.6702C15.921 12.5546 15.7754 12.3755 15.7595 12.1155C15.7435 11.8401 15.8632 11.6283 16.0946 11.4665C16.1624 11.4184 16.2103 11.4241 16.2721 11.4819C16.6132 11.8093 16.9583 12.1348 17.3073 12.4545C17.3772 12.518 17.3612 12.5508 17.2934 12.5912C17.0939 12.7106 16.8765 12.7742 16.6132 12.7722V12.7742Z" fill="#B0B7BE"/>
<path d="M17.2436 9.93355C17.2436 10.2032 16.8826 10.648 16.6233 10.6962C16.6034 10.7 16.5814 10.6962 16.5635 10.6885C16.3281 10.5883 16.0608 10.1704 16.0688 9.91815C16.0827 9.51949 16.4996 9.29032 16.9145 9.45401C17.1359 9.54068 17.2436 9.69667 17.2436 9.93548V9.93355Z" fill="#B0B7BE"/>
</svg>
