<svg width="28" height="28" viewBox="0 0 28 28" fill="none" xmlns="http://www.w3.org/2000/svg">
<path d="M21.4616 27.9978H6.55157C6.53181 27.9802 6.50545 27.9846 6.4835 27.9824C6.16295 27.9627 5.8446 27.9166 5.53063 27.8463C4.15841 27.5433 2.97281 26.8956 1.99578 25.8835C0.80579 24.6518 0.151499 23.1764 0.0329388 21.466C0.0285477 21.3979 0.0329334 21.3277 0 21.2618V6.75574C0.0307379 6.68768 0.0285477 6.61303 0.0329388 6.54277C0.0526988 6.22222 0.0966272 5.90387 0.160298 5.5877C0.627953 3.31969 2.18899 1.43151 4.32747 0.542304C5.10909 0.217361 5.92144 0.0439112 6.76674 0.0153689C6.79967 0.0153689 6.83478 0.0241512 6.86333 0H21.1543C21.1784 0.0175645 21.2069 0.0131733 21.2333 0.0131733C21.4133 0.0175644 21.5912 0.0329333 21.769 0.0504978C22.2806 0.103191 22.7812 0.21297 23.2664 0.377637C25.361 1.09339 26.9747 2.72469 27.6663 4.82584C27.8441 5.36595 27.9605 5.91923 27.9846 6.49008C27.9846 6.51643 27.9846 6.54497 28 6.56912V21.4462C27.9824 21.4704 27.9846 21.4989 27.9846 21.5253C27.9781 21.8634 27.921 22.1949 27.8485 22.5243C27.3787 24.6298 25.9867 26.3841 24.0502 27.3172C23.3169 27.6707 22.544 27.888 21.7339 27.9693C21.6438 27.978 21.5516 27.9693 21.4638 28L21.4616 27.9978ZM20.5065 8.24872V8.24214C20.2497 8.24214 19.9906 8.24433 19.7337 8.24214C19.1321 8.23555 18.5327 8.26629 17.9378 8.35631C17.6348 8.40022 17.334 8.4595 17.0419 8.5561C16.3569 8.78664 15.8168 9.19501 15.4612 9.83392C15.3097 10.1062 15.2021 10.3938 15.1252 10.6968C14.954 11.3796 14.8793 12.0756 14.8574 12.776C14.8376 13.4346 14.8288 14.0911 14.8464 14.7498C14.8639 15.4216 14.9101 16.0891 15.0352 16.7477C15.0989 17.0815 15.1779 17.4108 15.3075 17.727C15.6061 18.4625 16.1264 18.9697 16.8729 19.2397C17.121 19.3297 17.3779 19.3934 17.637 19.4395C18.2385 19.5515 18.8467 19.5866 19.4571 19.5976C19.9028 19.6064 20.3485 19.5976 20.7942 19.591C20.904 19.591 21.0115 19.5822 21.1191 19.5603C21.8217 19.4154 22.3574 18.8752 22.4957 18.1705C22.5177 18.0629 22.5353 17.9553 22.5243 17.8455C22.5133 17.7336 22.4716 17.6918 22.3618 17.6699C22.3047 17.6589 22.2476 17.6589 22.1906 17.6589C21.2443 17.6523 20.298 17.6765 19.3517 17.6369C18.996 17.6216 18.6447 17.5908 18.2956 17.5118C17.8675 17.4152 17.5755 17.1671 17.4262 16.7543C17.3625 16.5765 17.312 16.3965 17.2747 16.212C17.1627 15.6434 17.1122 15.0659 17.0968 14.4863C17.0815 13.9462 17.0968 13.4061 17.1232 12.8682C17.1451 12.4444 17.1869 12.0229 17.2747 11.6057C17.323 11.3774 17.3691 11.1491 17.4723 10.9361C17.6304 10.6046 17.8873 10.4004 18.2473 10.3213C18.5854 10.2467 18.9301 10.2116 19.2748 10.1962C19.6591 10.1764 20.0455 10.1764 20.4297 10.1764C20.6207 10.1764 20.8117 10.183 21.0027 10.1545C21.7602 10.0425 22.2959 9.55069 22.4738 8.8064C22.5023 8.68784 22.5265 8.56928 22.5199 8.44633C22.5133 8.33874 22.4694 8.28605 22.364 8.26409C22.3201 8.25531 22.274 8.25092 22.2279 8.25092C21.6548 8.25092 21.0818 8.25092 20.5087 8.25092L20.5065 8.24872ZM8.15212 14.8618C8.15212 16.2977 8.15212 17.7314 8.15212 19.1673C8.15212 19.2221 8.15213 19.277 8.15652 19.3319C8.17628 19.5142 8.27068 19.6173 8.45291 19.6481C8.58684 19.6722 8.72078 19.6547 8.85032 19.6327C9.27846 19.5559 9.64292 19.3517 9.9459 19.0421C10.3213 18.6579 10.4816 18.1836 10.4882 17.6545C10.4926 17.3274 10.4904 17.0002 10.4904 16.6709C10.4904 14.6905 10.4904 12.7101 10.4904 10.7275C10.4904 10.6265 10.4904 10.5277 10.5058 10.4289C10.519 10.3477 10.5607 10.2972 10.6441 10.2818C10.6902 10.273 10.7341 10.2686 10.7802 10.2686C11.2413 10.2686 11.7023 10.2686 12.1634 10.2686C12.3215 10.2686 12.4796 10.2555 12.6311 10.2138C13.3249 10.0249 13.7947 9.5968 13.9901 8.89422C14.0275 8.76249 14.0494 8.62856 14.0252 8.49024C14.0033 8.37387 13.9374 8.30142 13.8277 8.26409C13.7486 8.23775 13.6674 8.22896 13.5861 8.22896C13.4017 8.22896 13.2151 8.22896 13.0307 8.22896C10.6068 8.22896 8.18288 8.22896 5.75898 8.22896C5.72605 8.22896 5.69309 8.22896 5.65797 8.22896C5.60088 8.22896 5.54379 8.23555 5.48671 8.24872C5.35936 8.27946 5.27813 8.35411 5.2452 8.48145C5.22105 8.57147 5.22105 8.66149 5.22105 8.75151C5.22105 9.08304 5.22105 9.41237 5.22105 9.7439C5.22105 9.80977 5.22326 9.87783 5.23204 9.9437C5.25399 10.1237 5.34839 10.2203 5.52404 10.2533C5.58112 10.2643 5.63822 10.2664 5.6953 10.2664C6.4352 10.2664 7.17511 10.2664 7.91501 10.2664C7.95233 10.2664 7.98746 10.2664 8.02479 10.2686C8.11041 10.2774 8.13897 10.3016 8.14775 10.385C8.15653 10.4575 8.15652 10.5299 8.15652 10.6024C8.15652 12.0229 8.15652 13.4412 8.15652 14.8618H8.15212Z" fill="#B0B7BE"/>
</svg>
